%FSAX24Y24*%
%MOIN*%
G70*
G01*
G75*
G04 Layer_Color=8388736*
%ADD10R,0.1181X0.0827*%
%ADD11R,0.0630X0.0315*%
%ADD12R,0.0433X0.0394*%
%ADD13R,0.0394X0.0433*%
%ADD14R,0.0118X0.0630*%
%ADD15C,0.0157*%
%ADD16C,0.0094*%
%ADD17C,0.0080*%
%ADD18C,0.0591*%
%ADD19R,0.0591X0.0591*%
%ADD20C,0.0665*%
%ADD21R,0.0665X0.0665*%
%ADD22C,0.1874*%
%ADD23C,0.0472*%
%ADD24C,0.0079*%
%ADD25C,0.0098*%
%ADD26C,0.0140*%
%ADD27C,0.0100*%
%ADD28C,0.0059*%
%ADD29R,0.1261X0.0907*%
%ADD30R,0.0710X0.0395*%
%ADD31R,0.0513X0.0474*%
%ADD32R,0.0474X0.0513*%
%ADD33R,0.0198X0.0710*%
%ADD34C,0.0671*%
%ADD35R,0.0671X0.0671*%
%ADD36C,0.0745*%
%ADD37R,0.0745X0.0745*%
%ADD38C,0.1954*%
%ADD39C,0.0552*%
D17*
X057126Y085394D02*
Y098386D01*
X072480Y085394D02*
Y098386D01*
X057126D02*
X072480D01*
X057126Y085394D02*
X072480D01*
D29*
X071181Y086280D02*
D03*
Y089764D02*
D03*
D30*
X070039Y087283D02*
D03*
Y087776D02*
D03*
Y088268D02*
D03*
Y088760D02*
D03*
D31*
X070315Y095709D02*
D03*
X070984D02*
D03*
X069685Y095709D02*
D03*
X069016D02*
D03*
X066378Y089646D02*
D03*
X065709D02*
D03*
X065354Y088819D02*
D03*
X064685D02*
D03*
X063386D02*
D03*
X064055D02*
D03*
D32*
X066378Y091220D02*
D03*
Y090551D02*
D03*
X063622Y094134D02*
D03*
Y093465D02*
D03*
D33*
X063494Y090453D02*
D03*
X063750D02*
D03*
X064006D02*
D03*
X064262D02*
D03*
X064518D02*
D03*
X064774D02*
D03*
X065030D02*
D03*
X065285D02*
D03*
X065541D02*
D03*
X065797D02*
D03*
X063494Y092697D02*
D03*
X063750D02*
D03*
X064006D02*
D03*
X064262D02*
D03*
X064518D02*
D03*
X064774D02*
D03*
X065030D02*
D03*
X065285D02*
D03*
X065541D02*
D03*
X065797D02*
D03*
D34*
X070984Y091488D02*
D03*
Y092488D02*
D03*
Y093488D02*
D03*
D35*
Y094488D02*
D03*
D36*
X061425Y094031D02*
D03*
X060307Y093486D02*
D03*
X061425Y092941D02*
D03*
X060307Y092396D02*
D03*
X061425Y091850D02*
D03*
X060307Y091305D02*
D03*
X061425Y090760D02*
D03*
X060307Y090215D02*
D03*
D37*
X061425Y089669D02*
D03*
D38*
X060866Y086931D02*
D03*
Y096770D02*
D03*
D39*
X067480Y092410D02*
D03*
X069016Y095100D02*
D03*
M02*
