%FSAX24Y24*%
%MOIN*%
G70*
G01*
G75*
G04 Layer_Color=2752767*
%ADD10R,0.1181X0.0827*%
%ADD11R,0.0630X0.0315*%
%ADD12R,0.0433X0.0394*%
%ADD13R,0.0394X0.0433*%
%ADD14R,0.0118X0.0630*%
%ADD15C,0.0157*%
%ADD16C,0.0094*%
%ADD17C,0.0080*%
%ADD18C,0.0591*%
%ADD19R,0.0591X0.0591*%
%ADD20C,0.0665*%
%ADD21R,0.0665X0.0665*%
%ADD22C,0.1874*%
%ADD23C,0.0472*%
%ADD24C,0.0079*%
%ADD25C,0.0098*%
%ADD26C,0.0140*%
%ADD27C,0.0100*%
%ADD28C,0.0059*%
%ADD29R,0.1261X0.0907*%
%ADD30R,0.0710X0.0395*%
%ADD31R,0.0513X0.0474*%
%ADD32R,0.0474X0.0513*%
%ADD33R,0.0198X0.0710*%
%ADD34C,0.0671*%
%ADD35R,0.0671X0.0671*%
%ADD36C,0.0745*%
%ADD37R,0.0745X0.0745*%
%ADD38C,0.1954*%
%ADD39C,0.0552*%
%ADD40C,0.0067*%
D17*
X057126Y085394D02*
Y098386D01*
X072480Y085394D02*
Y098386D01*
X057126D02*
X072480D01*
X057126Y085394D02*
X072480D01*
D28*
X070784Y091288D02*
Y091688D01*
X071184D01*
Y091288D01*
X070784D01*
Y092288D02*
Y092688D01*
X071184D01*
Y092288D01*
X070784D01*
Y093288D02*
Y093688D01*
X071184D01*
Y093288D01*
X070784D01*
Y094288D02*
Y094688D01*
X071184D01*
Y094288D01*
X070784D01*
X060866Y086731D02*
X060666Y087131D01*
X061066D01*
X060866Y086731D01*
Y096570D02*
X060666Y096970D01*
X061066D01*
X060866Y096570D01*
X067480Y092210D02*
X067580Y092310D01*
X067680D01*
X067580Y092410D01*
X067680Y092510D01*
X067580D01*
X067480Y092610D01*
X067380Y092510D01*
X067280D01*
X067380Y092410D01*
X067280Y092310D01*
X067380D01*
X067480Y092210D01*
X069016Y094900D02*
X069116Y095000D01*
X069216D01*
X069116Y095100D01*
X069216Y095200D01*
X069116D01*
X069016Y095300D01*
X068916Y095200D01*
X068816D01*
X068916Y095100D01*
X068816Y095000D01*
X068916D01*
X069016Y094900D01*
D40*
X061625Y094031D02*
G03*
X061625Y094031I-000200J000000D01*
G01*
X060507Y093486D02*
G03*
X060507Y093486I-000200J000000D01*
G01*
X061625Y092941D02*
G03*
X061625Y092941I-000200J000000D01*
G01*
X060507Y092396D02*
G03*
X060507Y092396I-000200J000000D01*
G01*
X061625Y091850D02*
G03*
X061625Y091850I-000200J000000D01*
G01*
X060507Y091305D02*
G03*
X060507Y091305I-000200J000000D01*
G01*
X061625Y090760D02*
G03*
X061625Y090760I-000200J000000D01*
G01*
X060507Y090215D02*
G03*
X060507Y090215I-000200J000000D01*
G01*
X061625Y089669D02*
G03*
X061625Y089669I-000200J000000D01*
G01*
M02*
