%FSAX24Y24*%
%MOIN*%
G70*
G01*
G75*
%ADD10R,0.1181X0.0827*%
%ADD11R,0.0630X0.0315*%
%ADD12R,0.0433X0.0394*%
%ADD13R,0.0394X0.0433*%
%ADD14R,0.0118X0.0630*%
%ADD15C,0.0157*%
%ADD16C,0.0094*%
%ADD17C,0.0080*%
%ADD18C,0.0591*%
%ADD19R,0.0591X0.0591*%
%ADD20C,0.0665*%
%ADD21R,0.0665X0.0665*%
%ADD22C,0.1874*%
%ADD23C,0.0472*%
%ADD24C,0.0079*%
%ADD25C,0.0098*%
%ADD26C,0.0140*%
%ADD27C,0.0100*%
%ADD28C,0.0059*%
D17*
X057126Y085394D02*
Y098386D01*
X072480Y085394D02*
Y098386D01*
X057126D02*
X072480D01*
X057126Y085394D02*
X072480D01*
D24*
X057124Y088087D02*
G03*
X056850Y088360I-000274J000000D01*
G01*
X054764Y088636D02*
G03*
X055037Y088362I000274J000000D01*
G01*
X056850Y095341D02*
G03*
X057124Y095614I000000J000274D01*
G01*
X055037Y095339D02*
G03*
X054764Y095065I000000J-000274D01*
G01*
X063346Y091358D02*
G03*
X063346Y091791I000000J000217D01*
G01*
X070484Y094988D02*
X071484D01*
Y090988D02*
Y094988D01*
X070484Y090988D02*
Y094988D01*
Y090988D02*
X071484D01*
X058307Y085787D02*
Y097913D01*
X057126D02*
X062008D01*
X057126Y085787D02*
X062008D01*
X054764Y088636D02*
Y095065D01*
X062008Y085787D02*
Y097913D01*
X058307Y094606D02*
X062008D01*
X057126Y085787D02*
Y097913D01*
X058307Y089094D02*
X062008D01*
X055039Y088360D02*
X056850D01*
X055039Y095341D02*
X056850D01*
X063346Y090925D02*
Y091358D01*
Y091791D02*
Y092224D01*
X065945Y090925D02*
Y092224D01*
X063346Y090925D02*
X065945D01*
X063346Y092224D02*
X065945D01*
D25*
X063268Y090453D02*
G03*
X063268Y090453I-000049J000000D01*
G01*
D26*
X070630Y086102D02*
X071614D01*
Y086693D01*
X072008D01*
Y089339D01*
X071614D02*
X072008D01*
X071614D02*
Y089941D01*
X070630D02*
X071614D01*
X070630Y089138D02*
Y089941D01*
X070236Y089138D02*
X070630D01*
X070236Y086890D02*
Y089138D01*
Y086890D02*
X070630D01*
Y086102D02*
Y086890D01*
D27*
X070669Y087126D02*
Y087726D01*
X070969D01*
X071069Y087626D01*
Y087426D01*
X070969Y087326D01*
X070669D01*
X071669Y087126D02*
X071269D01*
X071669Y087526D01*
Y087626D01*
X071569Y087726D01*
X071369D01*
X071269Y087626D01*
X068976Y096220D02*
Y096820D01*
X069276D01*
X069376Y096720D01*
Y096520D01*
X069276Y096420D01*
X068976D01*
X069176D02*
X069376Y096220D01*
X069576D02*
X069776D01*
X069676D01*
Y096820D01*
X069576Y096720D01*
X070236Y096820D02*
Y096220D01*
X070536D01*
X070636Y096320D01*
Y096720D01*
X070536Y096820D01*
X070236D01*
X070836Y096220D02*
X071036D01*
X070936D01*
Y096820D01*
X070836Y096720D01*
X064185Y093825D02*
X064085Y093725D01*
Y093525D01*
X064185Y093425D01*
X064585D01*
X064685Y093525D01*
Y093725D01*
X064585Y093825D01*
X064685Y094025D02*
Y094225D01*
Y094125D01*
X064085D01*
X064185Y094025D01*
X063628Y088256D02*
X063528Y088356D01*
X063328D01*
X063228Y088256D01*
Y087856D01*
X063328Y087756D01*
X063528D01*
X063628Y087856D01*
X064228Y087756D02*
X063828D01*
X064228Y088156D01*
Y088256D01*
X064128Y088356D01*
X063928D01*
X063828Y088256D01*
X064967D02*
X064867Y088356D01*
X064667D01*
X064567Y088256D01*
Y087856D01*
X064667Y087756D01*
X064867D01*
X064967Y087856D01*
X065167Y088256D02*
X065267Y088356D01*
X065467D01*
X065567Y088256D01*
Y088156D01*
X065467Y088056D01*
X065367D01*
X065467D01*
X065567Y087956D01*
Y087856D01*
X065467Y087756D01*
X065267D01*
X065167Y087856D01*
X067007Y090794D02*
X066907Y090694D01*
Y090494D01*
X067007Y090394D01*
X067407D01*
X067507Y090494D01*
Y090694D01*
X067407Y090794D01*
X067507Y091293D02*
X066907D01*
X067207Y090994D01*
Y091393D01*
X067250Y089870D02*
X067150Y089970D01*
X066950D01*
X066850Y089870D01*
Y089470D01*
X066950Y089370D01*
X067150D01*
X067250Y089470D01*
X067850Y089970D02*
X067450D01*
Y089670D01*
X067650Y089770D01*
X067750D01*
X067850Y089670D01*
Y089470D01*
X067750Y089370D01*
X067550D01*
X067450Y089470D01*
X059140Y095718D02*
X058940D01*
X059040D01*
Y095218D01*
X058940Y095118D01*
X058840D01*
X058740Y095218D01*
X059340Y095118D02*
X059540D01*
X059440D01*
Y095718D01*
X059340Y095618D01*
X070630Y090276D02*
Y090875D01*
X070930D01*
X071030Y090775D01*
Y090575D01*
X070930Y090476D01*
X070630D01*
X071230Y090276D02*
X071430D01*
X071330D01*
Y090875D01*
X071230Y090775D01*
X063898Y091899D02*
Y091399D01*
X063998Y091299D01*
X064198D01*
X064298Y091399D01*
Y091899D01*
X064497Y091299D02*
X064697D01*
X064597D01*
Y091899D01*
X064497Y091799D01*
X062353Y086339D02*
X062953D01*
Y086738D01*
Y086938D02*
Y087138D01*
Y087038D01*
X062553D01*
Y086938D01*
X062353Y087438D02*
X062953D01*
Y087738D01*
X062853Y087838D01*
X062753D01*
X062653D01*
X062553Y087738D01*
Y087438D01*
Y088038D02*
X062953D01*
X062753D01*
X062653Y088138D01*
X062553Y088238D01*
Y088338D01*
X062953Y088938D02*
Y088738D01*
X062853Y088638D01*
X062653D01*
X062553Y088738D01*
Y088938D01*
X062653Y089038D01*
X062753D01*
Y088638D01*
X062453Y089638D02*
X062353Y089538D01*
Y089338D01*
X062453Y089238D01*
X062853D01*
X062953Y089338D01*
Y089538D01*
X062853Y089638D01*
X062553Y089837D02*
X062853D01*
X062953Y089937D01*
Y090237D01*
X062553D01*
X062353Y090437D02*
X062953D01*
Y090737D01*
X062853Y090837D01*
X062753D01*
X062653D01*
X062553Y090737D01*
Y090437D01*
X062953Y091337D02*
Y091137D01*
X062853Y091037D01*
X062653D01*
X062553Y091137D01*
Y091337D01*
X062653Y091437D01*
X062753D01*
Y091037D01*
X062353Y092237D02*
X062953D01*
Y092637D01*
X062453Y093236D02*
X062353Y093136D01*
Y092936D01*
X062453Y092836D01*
X062853D01*
X062953Y092936D01*
Y093136D01*
X062853Y093236D01*
X062653Y093436D02*
Y093836D01*
X062453Y094036D02*
X062353Y094136D01*
Y094336D01*
X062453Y094436D01*
X062553D01*
X062653Y094336D01*
Y094236D01*
Y094336D01*
X062753Y094436D01*
X062853D01*
X062953Y094336D01*
Y094136D01*
X062853Y094036D01*
X062953Y094636D02*
Y094836D01*
Y094736D01*
X062353D01*
X062453Y094636D01*
Y095136D02*
X062353Y095236D01*
Y095436D01*
X062453Y095536D01*
X062853D01*
X062953Y095436D01*
Y095236D01*
X062853Y095136D01*
X062453D01*
X062953Y096135D02*
Y095736D01*
X062553Y096135D01*
X062453D01*
X062353Y096035D01*
Y095836D01*
X062453Y095736D01*
X062553Y096435D02*
Y096635D01*
X062653Y096735D01*
X062953D01*
Y096435D01*
X062853Y096335D01*
X062753Y096435D01*
Y096735D01*
X067559Y094473D02*
X067959D01*
X067759Y094673D02*
Y094273D01*
X068159Y094673D02*
X068259Y094773D01*
X068459D01*
X068559Y094673D01*
Y094573D01*
X068459Y094473D01*
X068359D01*
X068459D01*
X068559Y094373D01*
Y094273D01*
X068459Y094173D01*
X068259D01*
X068159Y094273D01*
X068759Y094173D02*
Y094273D01*
X068859D01*
Y094173D01*
X068759D01*
X069258Y094673D02*
X069358Y094773D01*
X069558D01*
X069658Y094673D01*
Y094573D01*
X069558Y094473D01*
X069458D01*
X069558D01*
X069658Y094373D01*
Y094273D01*
X069558Y094173D01*
X069358D01*
X069258Y094273D01*
X069858Y094773D02*
Y094373D01*
X070058Y094173D01*
X070258Y094373D01*
Y094773D01*
X068622Y093789D02*
X069022D01*
X068822D01*
Y093189D01*
X069222Y093789D02*
X069622Y093189D01*
Y093789D02*
X069222Y093189D01*
X069822Y093789D02*
Y093189D01*
X070122D01*
X070222Y093289D01*
Y093689D01*
X070122Y093789D01*
X069822D01*
X068622Y092205D02*
Y092805D01*
X068922D01*
X069022Y092705D01*
Y092505D01*
X068922Y092405D01*
X068622D01*
X068822D02*
X069022Y092205D01*
X069222Y092805D02*
X069622Y092205D01*
Y092805D02*
X069222Y092205D01*
X069822Y092805D02*
Y092205D01*
X070122D01*
X070222Y092305D01*
Y092705D01*
X070122Y092805D01*
X069822D01*
X069022Y091681D02*
X068922Y091781D01*
X068722D01*
X068622Y091681D01*
Y091281D01*
X068722Y091181D01*
X068922D01*
X069022Y091281D01*
Y091481D01*
X068822D01*
X069222Y091181D02*
Y091781D01*
X069622Y091181D01*
Y091781D01*
X069822D02*
Y091181D01*
X070122D01*
X070222Y091281D01*
Y091681D01*
X070122Y091781D01*
X069822D01*
D28*
X058986Y093289D02*
X059085Y093388D01*
Y093585D01*
X058986Y093683D01*
X058593D01*
X058494Y093585D01*
Y093388D01*
X058593Y093289D01*
X058691D01*
X058789Y093388D01*
Y093683D01*
X058494Y090411D02*
X058593Y090215D01*
X058789Y090018D01*
X058986D01*
X059085Y090116D01*
Y090313D01*
X058986Y090411D01*
X058888D01*
X058789Y090313D01*
Y090018D01*
M02*
