%FSAX24Y24*%
%MOIN*%
G70*
G01*
G75*
G04 Layer_Physical_Order=2*
G04 Layer_Color=16711680*
%ADD10R,0.1181X0.0827*%
%ADD11R,0.0630X0.0315*%
%ADD12R,0.0433X0.0394*%
%ADD13R,0.0394X0.0433*%
%ADD14R,0.0118X0.0630*%
%ADD15C,0.0157*%
%ADD16C,0.0094*%
%ADD17C,0.0080*%
%ADD18C,0.0591*%
%ADD19R,0.0591X0.0591*%
%ADD20C,0.0665*%
%ADD21R,0.0665X0.0665*%
%ADD22C,0.1874*%
%ADD23C,0.0472*%
G36*
X071927Y085908D02*
X061162D01*
X061155Y085957D01*
X061257Y085988D01*
X061433Y086082D01*
X061588Y086209D01*
X061715Y086364D01*
X061809Y086541D01*
X061867Y086732D01*
X061887Y086931D01*
X061867Y087130D01*
X061809Y087322D01*
X061715Y087498D01*
X061588Y087653D01*
X061433Y087780D01*
X061257Y087874D01*
X061065Y087932D01*
X060866Y087952D01*
X060667Y087932D01*
X060476Y087874D01*
X060299Y087780D01*
X060144Y087653D01*
X060017Y087498D01*
X059923Y087322D01*
X059865Y087130D01*
X059845Y086931D01*
X059865Y086732D01*
X059923Y086541D01*
X060017Y086364D01*
X060144Y086209D01*
X060299Y086082D01*
X060476Y085988D01*
X060577Y085957D01*
X060570Y085908D01*
X057719D01*
Y097793D01*
X060570D01*
X060577Y097744D01*
X060476Y097713D01*
X060299Y097618D01*
X060144Y097491D01*
X060017Y097337D01*
X059923Y097160D01*
X059865Y096969D01*
X059845Y096770D01*
X059865Y096571D01*
X059923Y096379D01*
X060017Y096203D01*
X060144Y096048D01*
X060299Y095921D01*
X060476Y095827D01*
X060667Y095769D01*
X060866Y095749D01*
X061065Y095769D01*
X061257Y095827D01*
X061433Y095921D01*
X061588Y096048D01*
X061715Y096203D01*
X061809Y096379D01*
X061867Y096571D01*
X061887Y096770D01*
X061867Y096969D01*
X061809Y097160D01*
X061715Y097337D01*
X061588Y097491D01*
X061433Y097618D01*
X061257Y097713D01*
X061155Y097744D01*
X061162Y097793D01*
X071927D01*
Y085908D01*
D02*
G37*
%LPC*%
G36*
X070934Y091859D02*
X070887Y091853D01*
X070796Y091815D01*
X070718Y091755D01*
X070658Y091677D01*
X070620Y091586D01*
X070614Y091538D01*
X070934D01*
Y091859D01*
D02*
G37*
G36*
X061425Y092265D02*
X061318Y092251D01*
X061218Y092210D01*
X061132Y092144D01*
X061066Y092058D01*
X061024Y091958D01*
X061010Y091850D01*
X061024Y091743D01*
X061066Y091643D01*
X061132Y091557D01*
X061218Y091491D01*
X061318Y091450D01*
X061425Y091435D01*
X061533Y091450D01*
X061633Y091491D01*
X061719Y091557D01*
X061785Y091643D01*
X061826Y091743D01*
X061840Y091850D01*
X061826Y091958D01*
X061785Y092058D01*
X061719Y092144D01*
X061633Y092210D01*
X061533Y092251D01*
X061425Y092265D01*
D02*
G37*
G36*
X071034Y091859D02*
Y091538D01*
X071355D01*
X071349Y091586D01*
X071311Y091677D01*
X071251Y091755D01*
X071173Y091815D01*
X071082Y091853D01*
X071034Y091859D01*
D02*
G37*
G36*
X070984Y092865D02*
X070887Y092853D01*
X070796Y092815D01*
X070718Y092755D01*
X070658Y092677D01*
X070620Y092586D01*
X070607Y092488D01*
X070620Y092391D01*
X070658Y092300D01*
X070718Y092221D01*
X070796Y092161D01*
X070887Y092124D01*
X070984Y092111D01*
X071082Y092124D01*
X071173Y092161D01*
X071251Y092221D01*
X071311Y092300D01*
X071349Y092391D01*
X071361Y092488D01*
X071349Y092586D01*
X071311Y092677D01*
X071251Y092755D01*
X071173Y092815D01*
X071082Y092853D01*
X070984Y092865D01*
D02*
G37*
G36*
X060307Y092811D02*
X060200Y092796D01*
X060100Y092755D01*
X060014Y092689D01*
X059948Y092603D01*
X059906Y092503D01*
X059892Y092396D01*
X059906Y092288D01*
X059948Y092188D01*
X060014Y092102D01*
X060100Y092036D01*
X060200Y091995D01*
X060307Y091981D01*
X060414Y091995D01*
X060515Y092036D01*
X060601Y092102D01*
X060666Y092188D01*
X060708Y092288D01*
X060722Y092396D01*
X060708Y092503D01*
X060666Y092603D01*
X060601Y092689D01*
X060515Y092755D01*
X060414Y092796D01*
X060307Y092811D01*
D02*
G37*
G36*
X071355Y091438D02*
X071034D01*
Y091118D01*
X071082Y091124D01*
X071173Y091161D01*
X071251Y091221D01*
X071311Y091300D01*
X071349Y091391D01*
X071355Y091438D01*
D02*
G37*
G36*
X060307Y090630D02*
X060200Y090615D01*
X060100Y090574D01*
X060014Y090508D01*
X059948Y090422D01*
X059906Y090322D01*
X059892Y090215D01*
X059906Y090107D01*
X059948Y090007D01*
X060014Y089921D01*
X060100Y089855D01*
X060200Y089814D01*
X060307Y089800D01*
X060414Y089814D01*
X060515Y089855D01*
X060601Y089921D01*
X060666Y090007D01*
X060708Y090107D01*
X060722Y090215D01*
X060708Y090322D01*
X060666Y090422D01*
X060601Y090508D01*
X060515Y090574D01*
X060414Y090615D01*
X060307Y090630D01*
D02*
G37*
G36*
X061837Y090081D02*
X061014D01*
Y089258D01*
X061837D01*
Y090081D01*
D02*
G37*
G36*
X061425Y091175D02*
X061318Y091161D01*
X061218Y091119D01*
X061132Y091053D01*
X061066Y090967D01*
X061024Y090867D01*
X061010Y090760D01*
X061024Y090652D01*
X061066Y090552D01*
X061132Y090466D01*
X061218Y090400D01*
X061318Y090359D01*
X061425Y090345D01*
X061533Y090359D01*
X061633Y090400D01*
X061719Y090466D01*
X061785Y090552D01*
X061826Y090652D01*
X061840Y090760D01*
X061826Y090867D01*
X061785Y090967D01*
X061719Y091053D01*
X061633Y091119D01*
X061533Y091161D01*
X061425Y091175D01*
D02*
G37*
G36*
X070934Y091438D02*
X070614D01*
X070620Y091391D01*
X070658Y091300D01*
X070718Y091221D01*
X070796Y091161D01*
X070887Y091124D01*
X070934Y091118D01*
Y091438D01*
D02*
G37*
G36*
X060307Y091720D02*
X060200Y091706D01*
X060100Y091664D01*
X060014Y091599D01*
X059948Y091513D01*
X059906Y091413D01*
X059892Y091305D01*
X059906Y091198D01*
X059948Y091098D01*
X060014Y091012D01*
X060100Y090946D01*
X060200Y090904D01*
X060307Y090890D01*
X060414Y090904D01*
X060515Y090946D01*
X060601Y091012D01*
X060666Y091098D01*
X060708Y091198D01*
X060722Y091305D01*
X060708Y091413D01*
X060666Y091513D01*
X060601Y091599D01*
X060515Y091664D01*
X060414Y091706D01*
X060307Y091720D01*
D02*
G37*
G36*
X061425Y093356D02*
X061318Y093342D01*
X061218Y093300D01*
X061132Y093234D01*
X061066Y093148D01*
X061024Y093048D01*
X061010Y092941D01*
X061024Y092834D01*
X061066Y092733D01*
X061132Y092648D01*
X061218Y092582D01*
X061318Y092540D01*
X061425Y092526D01*
X061533Y092540D01*
X061633Y092582D01*
X061719Y092648D01*
X061785Y092733D01*
X061826Y092834D01*
X061840Y092941D01*
X061826Y093048D01*
X061785Y093148D01*
X061719Y093234D01*
X061633Y093300D01*
X061533Y093342D01*
X061425Y093356D01*
D02*
G37*
G36*
X068966Y095050D02*
X068705D01*
X068709Y095018D01*
X068741Y094941D01*
X068791Y094875D01*
X068857Y094825D01*
X068934Y094793D01*
X068966Y094789D01*
Y095050D01*
D02*
G37*
G36*
X071358Y094862D02*
X070610D01*
Y094649D01*
X070288D01*
X070227Y094637D01*
X070175Y094602D01*
X070175Y094602D01*
X068143Y092571D01*
X067754D01*
X067705Y092635D01*
X067639Y092685D01*
X067562Y092717D01*
X067480Y092728D01*
X067398Y092717D01*
X067321Y092685D01*
X067255Y092635D01*
X067205Y092569D01*
X067173Y092492D01*
X067162Y092410D01*
X067173Y092328D01*
X067205Y092251D01*
X067255Y092185D01*
X067321Y092135D01*
X067398Y092103D01*
X067480Y092092D01*
X067562Y092103D01*
X067639Y092135D01*
X067705Y092185D01*
X067754Y092249D01*
X068210D01*
X068210Y092249D01*
X068261Y092260D01*
X068271Y092262D01*
X068324Y092296D01*
X068324Y092296D01*
X068324Y092296D01*
X070355Y094328D01*
X070610D01*
Y094114D01*
X071358D01*
Y094862D01*
D02*
G37*
G36*
X069327Y095050D02*
X069066D01*
Y094789D01*
X069098Y094793D01*
X069175Y094825D01*
X069240Y094875D01*
X069291Y094941D01*
X069323Y095018D01*
X069327Y095050D01*
D02*
G37*
G36*
X069066Y095411D02*
Y095150D01*
X069327D01*
X069323Y095182D01*
X069291Y095259D01*
X069240Y095325D01*
X069175Y095375D01*
X069098Y095407D01*
X069066Y095411D01*
D02*
G37*
G36*
X068966D02*
X068934Y095407D01*
X068857Y095375D01*
X068791Y095325D01*
X068741Y095259D01*
X068709Y095182D01*
X068705Y095150D01*
X068966D01*
Y095411D01*
D02*
G37*
G36*
X061475Y094440D02*
Y094081D01*
X061834D01*
X061826Y094139D01*
X061785Y094239D01*
X061719Y094325D01*
X061633Y094391D01*
X061533Y094432D01*
X061475Y094440D01*
D02*
G37*
G36*
X070984Y093865D02*
X070887Y093853D01*
X070796Y093815D01*
X070718Y093755D01*
X070658Y093677D01*
X070620Y093586D01*
X070607Y093488D01*
X070620Y093391D01*
X070658Y093300D01*
X070718Y093221D01*
X070796Y093161D01*
X070887Y093124D01*
X070984Y093111D01*
X071082Y093124D01*
X071173Y093161D01*
X071251Y093221D01*
X071311Y093300D01*
X071349Y093391D01*
X071361Y093488D01*
X071349Y093586D01*
X071311Y093677D01*
X071251Y093755D01*
X071173Y093815D01*
X071082Y093853D01*
X070984Y093865D01*
D02*
G37*
G36*
X060307Y093901D02*
X060200Y093887D01*
X060100Y093846D01*
X060014Y093780D01*
X059948Y093694D01*
X059906Y093594D01*
X059892Y093486D01*
X059906Y093379D01*
X059948Y093279D01*
X060014Y093193D01*
X060100Y093127D01*
X060200Y093085D01*
X060307Y093071D01*
X060414Y093085D01*
X060515Y093127D01*
X060601Y093193D01*
X060666Y093279D01*
X060708Y093379D01*
X060722Y093486D01*
X060708Y093594D01*
X060666Y093694D01*
X060601Y093780D01*
X060515Y093846D01*
X060414Y093887D01*
X060307Y093901D01*
D02*
G37*
G36*
X061375Y093982D02*
X061017D01*
X061024Y093924D01*
X061066Y093824D01*
X061132Y093738D01*
X061218Y093672D01*
X061318Y093631D01*
X061375Y093623D01*
Y093982D01*
D02*
G37*
G36*
Y094440D02*
X061318Y094432D01*
X061218Y094391D01*
X061132Y094325D01*
X061066Y094239D01*
X061024Y094139D01*
X061017Y094081D01*
X061375D01*
Y094440D01*
D02*
G37*
G36*
X061834Y093982D02*
X061475D01*
Y093623D01*
X061533Y093631D01*
X061633Y093672D01*
X061719Y093738D01*
X061785Y093824D01*
X061826Y093924D01*
X061834Y093982D01*
D02*
G37*
%LPD*%
D15*
X061425Y093660D02*
X062080D01*
X067480Y092410D02*
X068210D01*
X070288Y094488D01*
X070984D01*
Y091488D02*
X071360D01*
X071440Y091568D01*
Y094880D01*
X071220Y095100D02*
X071440Y094880D01*
X069016Y095100D02*
X071220D01*
X061425Y093660D02*
Y094031D01*
X062080Y093660D02*
X064252Y091488D01*
X070984D01*
D17*
X057126Y085394D02*
Y098386D01*
X072480Y085394D02*
Y098386D01*
X057126D02*
X072480D01*
X057126Y085394D02*
X072480D01*
D18*
X070984Y091488D02*
D03*
Y092488D02*
D03*
Y093488D02*
D03*
D19*
Y094488D02*
D03*
D20*
X061425Y094031D02*
D03*
X060307Y093486D02*
D03*
X061425Y092941D02*
D03*
X060307Y092396D02*
D03*
X061425Y091850D02*
D03*
X060307Y091305D02*
D03*
X061425Y090760D02*
D03*
X060307Y090215D02*
D03*
D21*
X061425Y089669D02*
D03*
D22*
X060866Y086931D02*
D03*
Y096770D02*
D03*
D23*
X067480Y092410D02*
D03*
X069016Y095100D02*
D03*
M02*
