G04 #@! TF.FileFunction,Soldermask,Top*
%FSLAX46Y46*%
G04 Gerber Fmt 4.6, Leading zero omitted, Abs format (unit mm)*
G04 Created by KiCad (PCBNEW 4.0.5) date 01/20/17 14:33:55*
%MOMM*%
%LPD*%
G01*
G04 APERTURE LIST*
%ADD10C,0.100000*%
%ADD11R,1.600000X0.800000*%
%ADD12R,1.400000X1.650000*%
%ADD13R,1.650000X1.400000*%
%ADD14R,1.600000X1.600000*%
%ADD15C,4.210000*%
%ADD16R,1.924000X1.924000*%
%ADD17C,1.924000*%
%ADD18R,2.127200X2.432000*%
%ADD19O,2.127200X2.432000*%
%ADD20R,1.100000X1.700000*%
%ADD21R,1.200000X2.100000*%
%ADD22R,2.600000X3.500000*%
G04 APERTURE END LIST*
D10*
D11*
X148378500Y-85355000D03*
X148378500Y-86005000D03*
X148378500Y-86655000D03*
X148378500Y-87305000D03*
X148378500Y-87955000D03*
X148378500Y-88605000D03*
X148378500Y-89255000D03*
X148378500Y-89905000D03*
X155278500Y-89905000D03*
X155278500Y-89255000D03*
X155278500Y-88605000D03*
X155278500Y-87955000D03*
X155278500Y-87305000D03*
X155278500Y-86655000D03*
X155278500Y-86005000D03*
X155278500Y-85355000D03*
D12*
X161718500Y-86614000D03*
X159718500Y-86614000D03*
D13*
X137541000Y-85677500D03*
X137541000Y-87677500D03*
X137541000Y-90630500D03*
X137541000Y-92630500D03*
D12*
X143684500Y-86614000D03*
X141684500Y-86614000D03*
X142732000Y-91757500D03*
X140732000Y-91757500D03*
D14*
X138473000Y-98361500D03*
X140673000Y-98361500D03*
X138473000Y-95694500D03*
X140673000Y-95694500D03*
X138473000Y-101473000D03*
X140673000Y-101473000D03*
D15*
X161925000Y-77914500D03*
X136525000Y-77914500D03*
D16*
X143637000Y-80454500D03*
D17*
X146431000Y-80454500D03*
X149098000Y-80454500D03*
X151892000Y-80454500D03*
X154686000Y-80454500D03*
X145034000Y-77914500D03*
X147828000Y-77914500D03*
X150495000Y-77914500D03*
X153289000Y-77914500D03*
D18*
X152971500Y-98361500D03*
D19*
X155511500Y-98361500D03*
X158051500Y-98361500D03*
X160591500Y-98361500D03*
D20*
X143258500Y-98361500D03*
X145158500Y-98361500D03*
X145095000Y-95694500D03*
X143195000Y-95694500D03*
X143322000Y-101473000D03*
X145222000Y-101473000D03*
D21*
X154843000Y-102309000D03*
X156093000Y-102309000D03*
X157343000Y-102309000D03*
X158593000Y-102309000D03*
D22*
X152343000Y-105209000D03*
X161093000Y-105209000D03*
M02*
