G04 #@! TF.FileFunction,Legend,Top*
%FSLAX46Y46*%
G04 Gerber Fmt 4.6, Leading zero omitted, Abs format (unit mm)*
G04 Created by KiCad (PCBNEW 4.0.5) date 01/20/17 14:33:55*
%MOMM*%
%LPD*%
G01*
G04 APERTURE LIST*
%ADD10C,0.100000*%
%ADD11C,0.300000*%
%ADD12C,0.150000*%
%ADD13C,0.120000*%
G04 APERTURE END LIST*
D10*
D11*
X160095500Y-95249857D02*
X160024071Y-95392714D01*
X160024071Y-95607000D01*
X160095500Y-95821285D01*
X160238357Y-95964143D01*
X160381214Y-96035571D01*
X160666929Y-96107000D01*
X160881214Y-96107000D01*
X161166929Y-96035571D01*
X161309786Y-95964143D01*
X161452643Y-95821285D01*
X161524071Y-95607000D01*
X161524071Y-95464143D01*
X161452643Y-95249857D01*
X161381214Y-95178428D01*
X160881214Y-95178428D01*
X160881214Y-95464143D01*
X161524071Y-94535571D02*
X160024071Y-94535571D01*
X161524071Y-93678428D01*
X160024071Y-93678428D01*
X161524071Y-92964142D02*
X160024071Y-92964142D01*
X160024071Y-92606999D01*
X160095500Y-92392714D01*
X160238357Y-92249856D01*
X160381214Y-92178428D01*
X160666929Y-92106999D01*
X160881214Y-92106999D01*
X161166929Y-92178428D01*
X161309786Y-92249856D01*
X161452643Y-92392714D01*
X161524071Y-92606999D01*
X161524071Y-92964142D01*
X146395500Y-100715071D02*
X146895500Y-102215071D01*
X147395500Y-100715071D01*
X147824071Y-101786500D02*
X148538357Y-101786500D01*
X147681214Y-102215071D02*
X148181214Y-100715071D01*
X148681214Y-102215071D01*
X149895500Y-102215071D02*
X149181214Y-102215071D01*
X149181214Y-100715071D01*
X146351858Y-97603571D02*
X147280429Y-97603571D01*
X146780429Y-98175000D01*
X146994715Y-98175000D01*
X147137572Y-98246429D01*
X147209001Y-98317857D01*
X147280429Y-98460714D01*
X147280429Y-98817857D01*
X147209001Y-98960714D01*
X147137572Y-99032143D01*
X146994715Y-99103571D01*
X146566143Y-99103571D01*
X146423286Y-99032143D01*
X146351858Y-98960714D01*
X147709000Y-97603571D02*
X148209000Y-99103571D01*
X148709000Y-97603571D01*
X149066143Y-97603571D02*
X149994714Y-97603571D01*
X149494714Y-98175000D01*
X149709000Y-98175000D01*
X149851857Y-98246429D01*
X149923286Y-98317857D01*
X149994714Y-98460714D01*
X149994714Y-98817857D01*
X149923286Y-98960714D01*
X149851857Y-99032143D01*
X149709000Y-99103571D01*
X149280428Y-99103571D01*
X149137571Y-99032143D01*
X149066143Y-98960714D01*
X147216929Y-96436571D02*
X146716929Y-95722286D01*
X146359786Y-96436571D02*
X146359786Y-94936571D01*
X146931214Y-94936571D01*
X147074072Y-95008000D01*
X147145500Y-95079429D01*
X147216929Y-95222286D01*
X147216929Y-95436571D01*
X147145500Y-95579429D01*
X147074072Y-95650857D01*
X146931214Y-95722286D01*
X146359786Y-95722286D01*
X147859786Y-96436571D02*
X147859786Y-94936571D01*
X148216929Y-94936571D01*
X148431214Y-95008000D01*
X148574072Y-95150857D01*
X148645500Y-95293714D01*
X148716929Y-95579429D01*
X148716929Y-95793714D01*
X148645500Y-96079429D01*
X148574072Y-96222286D01*
X148431214Y-96365143D01*
X148216929Y-96436571D01*
X147859786Y-96436571D01*
X149645500Y-95722286D02*
X149645500Y-96436571D01*
X149145500Y-94936571D02*
X149645500Y-95722286D01*
X150145500Y-94936571D01*
X164826071Y-103932356D02*
X164826071Y-104646642D01*
X163326071Y-104646642D01*
X164826071Y-103432356D02*
X163826071Y-103432356D01*
X163326071Y-103432356D02*
X163397500Y-103503785D01*
X163468929Y-103432356D01*
X163397500Y-103360928D01*
X163326071Y-103432356D01*
X163468929Y-103432356D01*
X164826071Y-102718070D02*
X163326071Y-102718070D01*
X163897500Y-102718070D02*
X163826071Y-102575213D01*
X163826071Y-102289499D01*
X163897500Y-102146642D01*
X163968929Y-102075213D01*
X164111786Y-102003784D01*
X164540357Y-102003784D01*
X164683214Y-102075213D01*
X164754643Y-102146642D01*
X164826071Y-102289499D01*
X164826071Y-102575213D01*
X164754643Y-102718070D01*
X164826071Y-101360927D02*
X163826071Y-101360927D01*
X164111786Y-101360927D02*
X163968929Y-101289499D01*
X163897500Y-101218070D01*
X163826071Y-101075213D01*
X163826071Y-100932356D01*
X164754643Y-99860928D02*
X164826071Y-100003785D01*
X164826071Y-100289499D01*
X164754643Y-100432356D01*
X164611786Y-100503785D01*
X164040357Y-100503785D01*
X163897500Y-100432356D01*
X163826071Y-100289499D01*
X163826071Y-100003785D01*
X163897500Y-99860928D01*
X164040357Y-99789499D01*
X164183214Y-99789499D01*
X164326071Y-100503785D01*
X164683214Y-98289499D02*
X164754643Y-98360928D01*
X164826071Y-98575214D01*
X164826071Y-98718071D01*
X164754643Y-98932356D01*
X164611786Y-99075214D01*
X164468929Y-99146642D01*
X164183214Y-99218071D01*
X163968929Y-99218071D01*
X163683214Y-99146642D01*
X163540357Y-99075214D01*
X163397500Y-98932356D01*
X163326071Y-98718071D01*
X163326071Y-98575214D01*
X163397500Y-98360928D01*
X163468929Y-98289499D01*
X163826071Y-97003785D02*
X164826071Y-97003785D01*
X163826071Y-97646642D02*
X164611786Y-97646642D01*
X164754643Y-97575214D01*
X164826071Y-97432356D01*
X164826071Y-97218071D01*
X164754643Y-97075214D01*
X164683214Y-97003785D01*
X164826071Y-96289499D02*
X163326071Y-96289499D01*
X163897500Y-96289499D02*
X163826071Y-96146642D01*
X163826071Y-95860928D01*
X163897500Y-95718071D01*
X163968929Y-95646642D01*
X164111786Y-95575213D01*
X164540357Y-95575213D01*
X164683214Y-95646642D01*
X164754643Y-95718071D01*
X164826071Y-95860928D01*
X164826071Y-96146642D01*
X164754643Y-96289499D01*
X164754643Y-94360928D02*
X164826071Y-94503785D01*
X164826071Y-94789499D01*
X164754643Y-94932356D01*
X164611786Y-95003785D01*
X164040357Y-95003785D01*
X163897500Y-94932356D01*
X163826071Y-94789499D01*
X163826071Y-94503785D01*
X163897500Y-94360928D01*
X164040357Y-94289499D01*
X164183214Y-94289499D01*
X164326071Y-95003785D01*
X164826071Y-91789499D02*
X164826071Y-92503785D01*
X163326071Y-92503785D01*
X164683214Y-90432356D02*
X164754643Y-90503785D01*
X164826071Y-90718071D01*
X164826071Y-90860928D01*
X164754643Y-91075213D01*
X164611786Y-91218071D01*
X164468929Y-91289499D01*
X164183214Y-91360928D01*
X163968929Y-91360928D01*
X163683214Y-91289499D01*
X163540357Y-91218071D01*
X163397500Y-91075213D01*
X163326071Y-90860928D01*
X163326071Y-90718071D01*
X163397500Y-90503785D01*
X163468929Y-90432356D01*
X164254643Y-89789499D02*
X164254643Y-88646642D01*
X163326071Y-88075213D02*
X163326071Y-87146642D01*
X163897500Y-87646642D01*
X163897500Y-87432356D01*
X163968929Y-87289499D01*
X164040357Y-87218070D01*
X164183214Y-87146642D01*
X164540357Y-87146642D01*
X164683214Y-87218070D01*
X164754643Y-87289499D01*
X164826071Y-87432356D01*
X164826071Y-87860928D01*
X164754643Y-88003785D01*
X164683214Y-88075213D01*
X164826071Y-85718071D02*
X164826071Y-86575214D01*
X164826071Y-86146642D02*
X163326071Y-86146642D01*
X163540357Y-86289499D01*
X163683214Y-86432357D01*
X163754643Y-86575214D01*
X163326071Y-84789500D02*
X163326071Y-84646643D01*
X163397500Y-84503786D01*
X163468929Y-84432357D01*
X163611786Y-84360928D01*
X163897500Y-84289500D01*
X164254643Y-84289500D01*
X164540357Y-84360928D01*
X164683214Y-84432357D01*
X164754643Y-84503786D01*
X164826071Y-84646643D01*
X164826071Y-84789500D01*
X164754643Y-84932357D01*
X164683214Y-85003786D01*
X164540357Y-85075214D01*
X164254643Y-85146643D01*
X163897500Y-85146643D01*
X163611786Y-85075214D01*
X163468929Y-85003786D01*
X163397500Y-84932357D01*
X163326071Y-84789500D01*
X163468929Y-83718072D02*
X163397500Y-83646643D01*
X163326071Y-83503786D01*
X163326071Y-83146643D01*
X163397500Y-83003786D01*
X163468929Y-82932357D01*
X163611786Y-82860929D01*
X163754643Y-82860929D01*
X163968929Y-82932357D01*
X164826071Y-83789500D01*
X164826071Y-82860929D01*
X158793571Y-95233999D02*
X158079286Y-95733999D01*
X158793571Y-96091142D02*
X157293571Y-96091142D01*
X157293571Y-95519714D01*
X157365000Y-95376856D01*
X157436429Y-95305428D01*
X157579286Y-95233999D01*
X157793571Y-95233999D01*
X157936429Y-95305428D01*
X158007857Y-95376856D01*
X158079286Y-95519714D01*
X158079286Y-96091142D01*
X157293571Y-94733999D02*
X158793571Y-93733999D01*
X157293571Y-93733999D02*
X158793571Y-94733999D01*
X158793571Y-93162571D02*
X157293571Y-93162571D01*
X157293571Y-92805428D01*
X157365000Y-92591143D01*
X157507857Y-92448285D01*
X157650714Y-92376857D01*
X157936429Y-92305428D01*
X158150714Y-92305428D01*
X158436429Y-92376857D01*
X158579286Y-92448285D01*
X158722143Y-92591143D01*
X158793571Y-92805428D01*
X158793571Y-93162571D01*
X154880571Y-96190357D02*
X154880571Y-95333214D01*
X156380571Y-95761785D02*
X154880571Y-95761785D01*
X154880571Y-94976071D02*
X156380571Y-93976071D01*
X154880571Y-93976071D02*
X156380571Y-94976071D01*
X156380571Y-93404643D02*
X154880571Y-93404643D01*
X154880571Y-93047500D01*
X154952000Y-92833215D01*
X155094857Y-92690357D01*
X155237714Y-92618929D01*
X155523429Y-92547500D01*
X155737714Y-92547500D01*
X156023429Y-92618929D01*
X156166286Y-92690357D01*
X156309143Y-92833215D01*
X156380571Y-93047500D01*
X156380571Y-93404643D01*
X152213571Y-96218142D02*
X152213571Y-95289571D01*
X152785000Y-95789571D01*
X152785000Y-95575285D01*
X152856429Y-95432428D01*
X152927857Y-95360999D01*
X153070714Y-95289571D01*
X153427857Y-95289571D01*
X153570714Y-95360999D01*
X153642143Y-95432428D01*
X153713571Y-95575285D01*
X153713571Y-96003857D01*
X153642143Y-96146714D01*
X153570714Y-96218142D01*
X152213571Y-94861000D02*
X153713571Y-94361000D01*
X152213571Y-93861000D01*
X152213571Y-93503857D02*
X152213571Y-92575286D01*
X152785000Y-93075286D01*
X152785000Y-92861000D01*
X152856429Y-92718143D01*
X152927857Y-92646714D01*
X153070714Y-92575286D01*
X153427857Y-92575286D01*
X153570714Y-92646714D01*
X153642143Y-92718143D01*
X153713571Y-92861000D01*
X153713571Y-93289572D01*
X153642143Y-93432429D01*
X153570714Y-93503857D01*
D12*
X149053500Y-84355000D02*
X149053500Y-84830000D01*
X154603500Y-84355000D02*
X154603500Y-84930000D01*
X154603500Y-90905000D02*
X154603500Y-90330000D01*
X149053500Y-90905000D02*
X149053500Y-90330000D01*
X149053500Y-84355000D02*
X154603500Y-84355000D01*
X149053500Y-90905000D02*
X154603500Y-90905000D01*
X149053500Y-84830000D02*
X147778500Y-84830000D01*
D13*
X160218500Y-87464000D02*
X161218500Y-87464000D01*
X161218500Y-85764000D02*
X160218500Y-85764000D01*
X138391000Y-87177500D02*
X138391000Y-86177500D01*
X136691000Y-86177500D02*
X136691000Y-87177500D01*
X138391000Y-92130500D02*
X138391000Y-91130500D01*
X136691000Y-91130500D02*
X136691000Y-92130500D01*
X142184500Y-87464000D02*
X143184500Y-87464000D01*
X143184500Y-85764000D02*
X142184500Y-85764000D01*
X141232000Y-92607500D02*
X142232000Y-92607500D01*
X142232000Y-90907500D02*
X141232000Y-90907500D01*
X141373000Y-99061500D02*
X141373000Y-97661500D01*
X141373000Y-97661500D02*
X138573000Y-97661500D01*
X141373000Y-99061500D02*
X138573000Y-99061500D01*
X141373000Y-96394500D02*
X141373000Y-94994500D01*
X141373000Y-94994500D02*
X138573000Y-94994500D01*
X141373000Y-96394500D02*
X138573000Y-96394500D01*
X141373000Y-102173000D02*
X141373000Y-100773000D01*
X141373000Y-100773000D02*
X138573000Y-100773000D01*
X141373000Y-102173000D02*
X138573000Y-102173000D01*
D12*
X132969000Y-81470500D02*
X165481000Y-81470500D01*
X165481000Y-81470500D02*
X165481000Y-63690500D01*
X165481000Y-63690500D02*
X132969000Y-63690500D01*
X132969000Y-63690500D02*
X132969000Y-81470500D01*
X140081000Y-63690500D02*
X140081000Y-71310500D01*
X140081000Y-71310500D02*
X158369000Y-71310500D01*
X158369000Y-71310500D02*
X158369000Y-63690500D01*
X141605000Y-63690500D02*
X141605000Y-55054500D01*
X141605000Y-55054500D02*
X156845000Y-55054500D01*
X156845000Y-55054500D02*
X156845000Y-63690500D01*
X154241500Y-97091500D02*
X161861500Y-97091500D01*
X154241500Y-99631500D02*
X161861500Y-99631500D01*
X151421500Y-99911500D02*
X152971500Y-99911500D01*
X161861500Y-97091500D02*
X161861500Y-99631500D01*
X154241500Y-99631500D02*
X154241500Y-97091500D01*
X152971500Y-96811500D02*
X151421500Y-96811500D01*
X151421500Y-96811500D02*
X151421500Y-99911500D01*
X144808500Y-99236500D02*
X143608500Y-99236500D01*
X143608500Y-97486500D02*
X144808500Y-97486500D01*
X143545000Y-94819500D02*
X144745000Y-94819500D01*
X144745000Y-96569500D02*
X143545000Y-96569500D01*
X144872000Y-102348000D02*
X143672000Y-102348000D01*
X143672000Y-100598000D02*
X144872000Y-100598000D01*
X159293000Y-102959000D02*
X160243000Y-102959000D01*
X160243000Y-102959000D02*
X160243000Y-103359000D01*
X154143000Y-102959000D02*
X153193000Y-102959000D01*
X153193000Y-102959000D02*
X153193000Y-103359000D01*
X160243000Y-107059000D02*
X160243000Y-107459000D01*
X160243000Y-107459000D02*
X156718000Y-107459000D01*
X153193000Y-107059000D02*
X153193000Y-107459000D01*
X153193000Y-107459000D02*
X156718000Y-107459000D01*
X154143000Y-102959000D02*
X154143000Y-101459000D01*
X151066595Y-82882381D02*
X151066595Y-83691905D01*
X151114214Y-83787143D01*
X151161833Y-83834762D01*
X151257071Y-83882381D01*
X151447548Y-83882381D01*
X151542786Y-83834762D01*
X151590405Y-83787143D01*
X151638024Y-83691905D01*
X151638024Y-82882381D01*
X152638024Y-83882381D02*
X152066595Y-83882381D01*
X152352309Y-83882381D02*
X152352309Y-82882381D01*
X152257071Y-83025238D01*
X152161833Y-83120476D01*
X152066595Y-83168095D01*
X160615334Y-88558643D02*
X160567715Y-88606262D01*
X160424858Y-88653881D01*
X160329620Y-88653881D01*
X160186762Y-88606262D01*
X160091524Y-88511024D01*
X160043905Y-88415786D01*
X159996286Y-88225310D01*
X159996286Y-88082452D01*
X160043905Y-87891976D01*
X160091524Y-87796738D01*
X160186762Y-87701500D01*
X160329620Y-87653881D01*
X160424858Y-87653881D01*
X160567715Y-87701500D01*
X160615334Y-87749119D01*
X161567715Y-88653881D02*
X160996286Y-88653881D01*
X161282000Y-88653881D02*
X161282000Y-87653881D01*
X161186762Y-87796738D01*
X161091524Y-87891976D01*
X160996286Y-87939595D01*
X139485643Y-86907666D02*
X139533262Y-86955285D01*
X139580881Y-87098142D01*
X139580881Y-87193380D01*
X139533262Y-87336238D01*
X139438024Y-87431476D01*
X139342786Y-87479095D01*
X139152310Y-87526714D01*
X139009452Y-87526714D01*
X138818976Y-87479095D01*
X138723738Y-87431476D01*
X138628500Y-87336238D01*
X138580881Y-87193380D01*
X138580881Y-87098142D01*
X138628500Y-86955285D01*
X138676119Y-86907666D01*
X138676119Y-86526714D02*
X138628500Y-86479095D01*
X138580881Y-86383857D01*
X138580881Y-86145761D01*
X138628500Y-86050523D01*
X138676119Y-86002904D01*
X138771357Y-85955285D01*
X138866595Y-85955285D01*
X139009452Y-86002904D01*
X139580881Y-86574333D01*
X139580881Y-85955285D01*
X139549143Y-91860666D02*
X139596762Y-91908285D01*
X139644381Y-92051142D01*
X139644381Y-92146380D01*
X139596762Y-92289238D01*
X139501524Y-92384476D01*
X139406286Y-92432095D01*
X139215810Y-92479714D01*
X139072952Y-92479714D01*
X138882476Y-92432095D01*
X138787238Y-92384476D01*
X138692000Y-92289238D01*
X138644381Y-92146380D01*
X138644381Y-92051142D01*
X138692000Y-91908285D01*
X138739619Y-91860666D01*
X138644381Y-91527333D02*
X138644381Y-90908285D01*
X139025333Y-91241619D01*
X139025333Y-91098761D01*
X139072952Y-91003523D01*
X139120571Y-90955904D01*
X139215810Y-90908285D01*
X139453905Y-90908285D01*
X139549143Y-90955904D01*
X139596762Y-91003523D01*
X139644381Y-91098761D01*
X139644381Y-91384476D01*
X139596762Y-91479714D01*
X139549143Y-91527333D01*
X142517834Y-88558643D02*
X142470215Y-88606262D01*
X142327358Y-88653881D01*
X142232120Y-88653881D01*
X142089262Y-88606262D01*
X141994024Y-88511024D01*
X141946405Y-88415786D01*
X141898786Y-88225310D01*
X141898786Y-88082452D01*
X141946405Y-87891976D01*
X141994024Y-87796738D01*
X142089262Y-87701500D01*
X142232120Y-87653881D01*
X142327358Y-87653881D01*
X142470215Y-87701500D01*
X142517834Y-87749119D01*
X143374977Y-87987214D02*
X143374977Y-88653881D01*
X143136881Y-87606262D02*
X142898786Y-88320548D01*
X143517834Y-88320548D01*
X141882834Y-93702143D02*
X141835215Y-93749762D01*
X141692358Y-93797381D01*
X141597120Y-93797381D01*
X141454262Y-93749762D01*
X141359024Y-93654524D01*
X141311405Y-93559286D01*
X141263786Y-93368810D01*
X141263786Y-93225952D01*
X141311405Y-93035476D01*
X141359024Y-92940238D01*
X141454262Y-92845000D01*
X141597120Y-92797381D01*
X141692358Y-92797381D01*
X141835215Y-92845000D01*
X141882834Y-92892619D01*
X142787596Y-92797381D02*
X142311405Y-92797381D01*
X142263786Y-93273571D01*
X142311405Y-93225952D01*
X142406643Y-93178333D01*
X142644739Y-93178333D01*
X142739977Y-93225952D01*
X142787596Y-93273571D01*
X142835215Y-93368810D01*
X142835215Y-93606905D01*
X142787596Y-93702143D01*
X142739977Y-93749762D01*
X142644739Y-93797381D01*
X142406643Y-93797381D01*
X142311405Y-93749762D01*
X142263786Y-93702143D01*
X138834905Y-100263881D02*
X138834905Y-99263881D01*
X139073000Y-99263881D01*
X139215858Y-99311500D01*
X139311096Y-99406738D01*
X139358715Y-99501976D01*
X139406334Y-99692452D01*
X139406334Y-99835310D01*
X139358715Y-100025786D01*
X139311096Y-100121024D01*
X139215858Y-100216262D01*
X139073000Y-100263881D01*
X138834905Y-100263881D01*
X140358715Y-100263881D02*
X139787286Y-100263881D01*
X140073000Y-100263881D02*
X140073000Y-99263881D01*
X139977762Y-99406738D01*
X139882524Y-99501976D01*
X139787286Y-99549595D01*
X138834905Y-97596881D02*
X138834905Y-96596881D01*
X139073000Y-96596881D01*
X139215858Y-96644500D01*
X139311096Y-96739738D01*
X139358715Y-96834976D01*
X139406334Y-97025452D01*
X139406334Y-97168310D01*
X139358715Y-97358786D01*
X139311096Y-97454024D01*
X139215858Y-97549262D01*
X139073000Y-97596881D01*
X138834905Y-97596881D01*
X139787286Y-96692119D02*
X139834905Y-96644500D01*
X139930143Y-96596881D01*
X140168239Y-96596881D01*
X140263477Y-96644500D01*
X140311096Y-96692119D01*
X140358715Y-96787357D01*
X140358715Y-96882595D01*
X140311096Y-97025452D01*
X139739667Y-97596881D01*
X140358715Y-97596881D01*
X138834905Y-103385881D02*
X138834905Y-102385881D01*
X139073000Y-102385881D01*
X139215858Y-102433500D01*
X139311096Y-102528738D01*
X139358715Y-102623976D01*
X139406334Y-102814452D01*
X139406334Y-102957310D01*
X139358715Y-103147786D01*
X139311096Y-103243024D01*
X139215858Y-103338262D01*
X139073000Y-103385881D01*
X138834905Y-103385881D01*
X139739667Y-102385881D02*
X140358715Y-102385881D01*
X140025381Y-102766833D01*
X140168239Y-102766833D01*
X140263477Y-102814452D01*
X140311096Y-102862071D01*
X140358715Y-102957310D01*
X140358715Y-103195405D01*
X140311096Y-103290643D01*
X140263477Y-103338262D01*
X140168239Y-103385881D01*
X139882524Y-103385881D01*
X139787286Y-103338262D01*
X139739667Y-103290643D01*
X150034667Y-68476881D02*
X150034667Y-69191167D01*
X149987047Y-69334024D01*
X149891809Y-69429262D01*
X149748952Y-69476881D01*
X149653714Y-69476881D01*
X151034667Y-69476881D02*
X150463238Y-69476881D01*
X150748952Y-69476881D02*
X150748952Y-68476881D01*
X150653714Y-68619738D01*
X150558476Y-68714976D01*
X150463238Y-68762595D01*
X150010905Y-100845881D02*
X150010905Y-99845881D01*
X150391858Y-99845881D01*
X150487096Y-99893500D01*
X150534715Y-99941119D01*
X150582334Y-100036357D01*
X150582334Y-100179214D01*
X150534715Y-100274452D01*
X150487096Y-100322071D01*
X150391858Y-100369690D01*
X150010905Y-100369690D01*
X150963286Y-99941119D02*
X151010905Y-99893500D01*
X151106143Y-99845881D01*
X151344239Y-99845881D01*
X151439477Y-99893500D01*
X151487096Y-99941119D01*
X151534715Y-100036357D01*
X151534715Y-100131595D01*
X151487096Y-100274452D01*
X150915667Y-100845881D01*
X151534715Y-100845881D01*
X144041834Y-97543881D02*
X143708500Y-97067690D01*
X143470405Y-97543881D02*
X143470405Y-96543881D01*
X143851358Y-96543881D01*
X143946596Y-96591500D01*
X143994215Y-96639119D01*
X144041834Y-96734357D01*
X144041834Y-96877214D01*
X143994215Y-96972452D01*
X143946596Y-97020071D01*
X143851358Y-97067690D01*
X143470405Y-97067690D01*
X144994215Y-97543881D02*
X144422786Y-97543881D01*
X144708500Y-97543881D02*
X144708500Y-96543881D01*
X144613262Y-96686738D01*
X144518024Y-96781976D01*
X144422786Y-96829595D01*
X144041834Y-100401381D02*
X143708500Y-99925190D01*
X143470405Y-100401381D02*
X143470405Y-99401381D01*
X143851358Y-99401381D01*
X143946596Y-99449000D01*
X143994215Y-99496619D01*
X144041834Y-99591857D01*
X144041834Y-99734714D01*
X143994215Y-99829952D01*
X143946596Y-99877571D01*
X143851358Y-99925190D01*
X143470405Y-99925190D01*
X144422786Y-99496619D02*
X144470405Y-99449000D01*
X144565643Y-99401381D01*
X144803739Y-99401381D01*
X144898977Y-99449000D01*
X144946596Y-99496619D01*
X144994215Y-99591857D01*
X144994215Y-99687095D01*
X144946596Y-99829952D01*
X144375167Y-100401381D01*
X144994215Y-100401381D01*
X144105334Y-103576381D02*
X143772000Y-103100190D01*
X143533905Y-103576381D02*
X143533905Y-102576381D01*
X143914858Y-102576381D01*
X144010096Y-102624000D01*
X144057715Y-102671619D01*
X144105334Y-102766857D01*
X144105334Y-102909714D01*
X144057715Y-103004952D01*
X144010096Y-103052571D01*
X143914858Y-103100190D01*
X143533905Y-103100190D01*
X144438667Y-102576381D02*
X145057715Y-102576381D01*
X144724381Y-102957333D01*
X144867239Y-102957333D01*
X144962477Y-103004952D01*
X145010096Y-103052571D01*
X145057715Y-103147810D01*
X145057715Y-103385905D01*
X145010096Y-103481143D01*
X144962477Y-103528762D01*
X144867239Y-103576381D01*
X144581524Y-103576381D01*
X144486286Y-103528762D01*
X144438667Y-103481143D01*
X160043905Y-102052381D02*
X160043905Y-101052381D01*
X160424858Y-101052381D01*
X160520096Y-101100000D01*
X160567715Y-101147619D01*
X160615334Y-101242857D01*
X160615334Y-101385714D01*
X160567715Y-101480952D01*
X160520096Y-101528571D01*
X160424858Y-101576190D01*
X160043905Y-101576190D01*
X161567715Y-102052381D02*
X160996286Y-102052381D01*
X161282000Y-102052381D02*
X161282000Y-101052381D01*
X161186762Y-101195238D01*
X161091524Y-101290476D01*
X160996286Y-101338095D01*
M02*
