M48
;DRILL file {KiCad 4.0.5} date 01/20/17 14:34:01
;FORMAT={-:-/ absolute / metric / decimal}
FMAT,2
METRIC,TZ
T1C0.400
T2C1.016
T3C3.048
%
G90
G05
M71
T1
X136.398Y-101.473
X140.208Y-86.614
X143.192Y-93.408
X146.431Y-83.629
X150.749Y-83.629
X157.162Y-89.281
X159.702Y-92.456
T2
X143.637Y-80.454
X145.034Y-77.914
X146.431Y-80.454
X147.828Y-77.914
X149.098Y-80.454
X150.495Y-77.914
X151.892Y-80.454
X152.971Y-98.361
X153.289Y-77.914
X154.686Y-80.454
X155.511Y-98.361
X158.052Y-98.361
X160.591Y-98.361
T3
X136.525Y-77.914
X161.925Y-77.914
T0
M30
