G04 #@! TF.FileFunction,Copper,L1,Top,Signal*
%FSLAX46Y46*%
G04 Gerber Fmt 4.6, Leading zero omitted, Abs format (unit mm)*
G04 Created by KiCad (PCBNEW 4.0.5) date 01/20/17 14:33:55*
%MOMM*%
%LPD*%
G01*
G04 APERTURE LIST*
%ADD10C,0.100000*%
%ADD11R,1.200000X0.400000*%
%ADD12R,1.000000X1.250000*%
%ADD13R,1.250000X1.000000*%
%ADD14R,1.200000X1.200000*%
%ADD15C,3.810000*%
%ADD16R,1.524000X1.524000*%
%ADD17C,1.524000*%
%ADD18R,1.727200X2.032000*%
%ADD19O,1.727200X2.032000*%
%ADD20R,0.700000X1.300000*%
%ADD21R,0.800000X1.700000*%
%ADD22R,2.200000X3.100000*%
%ADD23C,0.600000*%
%ADD24C,0.250000*%
%ADD25C,0.254000*%
G04 APERTURE END LIST*
D10*
D11*
X148378500Y-85355000D03*
X148378500Y-86005000D03*
X148378500Y-86655000D03*
X148378500Y-87305000D03*
X148378500Y-87955000D03*
X148378500Y-88605000D03*
X148378500Y-89255000D03*
X148378500Y-89905000D03*
X155278500Y-89905000D03*
X155278500Y-89255000D03*
X155278500Y-88605000D03*
X155278500Y-87955000D03*
X155278500Y-87305000D03*
X155278500Y-86655000D03*
X155278500Y-86005000D03*
X155278500Y-85355000D03*
D12*
X161718500Y-86614000D03*
X159718500Y-86614000D03*
D13*
X137541000Y-85677500D03*
X137541000Y-87677500D03*
X137541000Y-90630500D03*
X137541000Y-92630500D03*
D12*
X143684500Y-86614000D03*
X141684500Y-86614000D03*
X142732000Y-91757500D03*
X140732000Y-91757500D03*
D14*
X138473000Y-98361500D03*
X140673000Y-98361500D03*
X138473000Y-95694500D03*
X140673000Y-95694500D03*
X138473000Y-101473000D03*
X140673000Y-101473000D03*
D15*
X161925000Y-77914500D03*
X136525000Y-77914500D03*
D16*
X143637000Y-80454500D03*
D17*
X146431000Y-80454500D03*
X149098000Y-80454500D03*
X151892000Y-80454500D03*
X154686000Y-80454500D03*
X145034000Y-77914500D03*
X147828000Y-77914500D03*
X150495000Y-77914500D03*
X153289000Y-77914500D03*
D18*
X152971500Y-98361500D03*
D19*
X155511500Y-98361500D03*
X158051500Y-98361500D03*
X160591500Y-98361500D03*
D20*
X143258500Y-98361500D03*
X145158500Y-98361500D03*
X145095000Y-95694500D03*
X143195000Y-95694500D03*
X143322000Y-101473000D03*
X145222000Y-101473000D03*
D21*
X154843000Y-102309000D03*
X156093000Y-102309000D03*
X157343000Y-102309000D03*
X158593000Y-102309000D03*
D22*
X152343000Y-105209000D03*
X161093000Y-105209000D03*
D23*
X159702500Y-92456000D03*
X143192500Y-93408500D03*
X140208000Y-86614000D03*
X136398000Y-101473000D03*
X157162500Y-89281000D03*
X150749000Y-83629500D03*
X146431000Y-83629500D03*
D24*
X155278500Y-87955000D02*
X153931500Y-87955000D01*
X153931500Y-87955000D02*
X153924000Y-87947500D01*
X155278500Y-86005000D02*
X156311000Y-86005000D01*
X156311000Y-86005000D02*
X156464000Y-85852000D01*
X152971500Y-98361500D02*
X152971500Y-99060000D01*
X141684500Y-86614000D02*
X140208000Y-86614000D01*
X160591500Y-98361500D02*
X160591500Y-98996500D01*
X160591500Y-98996500D02*
X158593000Y-100995000D01*
X158593000Y-100995000D02*
X158593000Y-102309000D01*
X145222000Y-101473000D02*
X145222000Y-98425000D01*
X145222000Y-98425000D02*
X145158500Y-98361500D01*
X145158500Y-98361500D02*
X145158500Y-95758000D01*
X145158500Y-95758000D02*
X145095000Y-95694500D01*
X159702500Y-89344500D02*
X159702500Y-92456000D01*
X159702500Y-92456000D02*
X159702500Y-97472500D01*
X159702500Y-97472500D02*
X160591500Y-98361500D01*
X145095000Y-95694500D02*
X145095000Y-94295000D01*
X145095000Y-94295000D02*
X144208500Y-93408500D01*
X144208500Y-93408500D02*
X143192500Y-93408500D01*
X143192500Y-93408500D02*
X140716000Y-93408500D01*
X157226000Y-86655000D02*
X156718000Y-86655000D01*
X156718000Y-86655000D02*
X156337000Y-86655000D01*
X156337000Y-86655000D02*
X155278500Y-86655000D01*
X140732000Y-91757500D02*
X140732000Y-93392500D01*
X140732000Y-93392500D02*
X140716000Y-93408500D01*
X159702500Y-89344500D02*
X159718500Y-89328500D01*
X159718500Y-89328500D02*
X159718500Y-86614000D01*
X157226000Y-86655000D02*
X157480000Y-86655000D01*
X157480000Y-86655000D02*
X159677500Y-86655000D01*
X159677500Y-86655000D02*
X159718500Y-86614000D01*
X148378500Y-86005000D02*
X147680000Y-86005000D01*
X143510000Y-84455000D02*
X144589500Y-84455000D01*
X137541000Y-85614000D02*
X137541000Y-84772500D01*
X137541000Y-84772500D02*
X137858500Y-84455000D01*
X137858500Y-84455000D02*
X143510000Y-84455000D01*
X143510000Y-84455000D02*
X143573500Y-84455000D01*
X144589500Y-84455000D02*
X146139500Y-86005000D01*
X146139500Y-86005000D02*
X147680000Y-86005000D01*
X148378500Y-87305000D02*
X147680000Y-87305000D01*
X144589500Y-89090500D02*
X143446500Y-89090500D01*
X137541000Y-87614000D02*
X137541000Y-88709500D01*
X137541000Y-88709500D02*
X137922000Y-89090500D01*
X137922000Y-89090500D02*
X143446500Y-89090500D01*
X143446500Y-89090500D02*
X143573500Y-89090500D01*
X144589500Y-89090500D02*
X146375000Y-87305000D01*
X146375000Y-87305000D02*
X147680000Y-87305000D01*
X148378500Y-87955000D02*
X147680000Y-87955000D01*
X137541000Y-90630500D02*
X137541000Y-89979500D01*
X137541000Y-89979500D02*
X137922000Y-89598500D01*
X137922000Y-89598500D02*
X144970500Y-89598500D01*
X144970500Y-89598500D02*
X146614000Y-87955000D01*
X146614000Y-87955000D02*
X147680000Y-87955000D01*
X148378500Y-88605000D02*
X147680000Y-88605000D01*
X137541000Y-92630500D02*
X137541000Y-93662500D01*
X137541000Y-93662500D02*
X137795000Y-93916500D01*
X137795000Y-93916500D02*
X138747500Y-93916500D01*
X138747500Y-93916500D02*
X139001500Y-93662500D01*
X139001500Y-93662500D02*
X139001500Y-90487500D01*
X139001500Y-90487500D02*
X139319000Y-90170000D01*
X139319000Y-90170000D02*
X145161000Y-90170000D01*
X145161000Y-90170000D02*
X146726000Y-88605000D01*
X146726000Y-88605000D02*
X147680000Y-88605000D01*
X148378500Y-86655000D02*
X147680000Y-86655000D01*
X147680000Y-86655000D02*
X143725500Y-86655000D01*
X143725500Y-86655000D02*
X143684500Y-86614000D01*
X148378500Y-89255000D02*
X147637500Y-89255000D01*
X147637500Y-89255000D02*
X147680000Y-89255000D01*
X147680000Y-89255000D02*
X147637500Y-89255000D01*
X147637500Y-89255000D02*
X146901500Y-89255000D01*
X146901500Y-89255000D02*
X144399000Y-91757500D01*
X144399000Y-91757500D02*
X142732000Y-91757500D01*
X143258500Y-98361500D02*
X140673000Y-98361500D01*
X148378500Y-85355000D02*
X146483500Y-85355000D01*
X146483500Y-85355000D02*
X144758000Y-83629500D01*
X144758000Y-83629500D02*
X137287000Y-83629500D01*
X137287000Y-83629500D02*
X136080500Y-84836000D01*
X136080500Y-84836000D02*
X136080500Y-93726000D01*
X136080500Y-93726000D02*
X137985500Y-95631000D01*
X143195000Y-95694500D02*
X140673000Y-95694500D01*
X155278500Y-89255000D02*
X157136500Y-89255000D01*
X136398000Y-101473000D02*
X138473000Y-101473000D01*
X157136500Y-89255000D02*
X157162500Y-89281000D01*
X143322000Y-101473000D02*
X140673000Y-101473000D01*
X155278500Y-87305000D02*
X154424500Y-87305000D01*
X154424500Y-87305000D02*
X150749000Y-83629500D01*
X146431000Y-83629500D02*
X146431000Y-80454500D01*
X155278500Y-87305000D02*
X154439500Y-87305000D01*
X154580000Y-87305000D02*
X154439500Y-87305000D01*
X149098000Y-80454500D02*
X149098000Y-83693000D01*
X149098000Y-83693000D02*
X150177500Y-84772500D01*
X150177500Y-84772500D02*
X150177500Y-89344500D01*
X150177500Y-89344500D02*
X149617000Y-89905000D01*
X149617000Y-89905000D02*
X148378500Y-89905000D01*
X155511500Y-98361500D02*
X155511500Y-100203000D01*
X156093000Y-100784500D02*
X156093000Y-102309000D01*
X155511500Y-100203000D02*
X156093000Y-100784500D01*
X155278500Y-89905000D02*
X155278500Y-98128500D01*
X155278500Y-98128500D02*
X155511500Y-98361500D01*
X158051500Y-98361500D02*
X158051500Y-100139500D01*
X157343000Y-100848000D02*
X157343000Y-102309000D01*
X158051500Y-100139500D02*
X157343000Y-100848000D01*
X155278500Y-88605000D02*
X157502500Y-88605000D01*
X157502500Y-88605000D02*
X158051500Y-89154000D01*
X158051500Y-89154000D02*
X158051500Y-98361500D01*
D25*
G36*
X165215500Y-107494000D02*
X133298000Y-107494000D01*
X133298000Y-103659000D01*
X150595560Y-103659000D01*
X150595560Y-106759000D01*
X150639838Y-106994317D01*
X150778910Y-107210441D01*
X150991110Y-107355431D01*
X151243000Y-107406440D01*
X153443000Y-107406440D01*
X153678317Y-107362162D01*
X153894441Y-107223090D01*
X154039431Y-107010890D01*
X154090440Y-106759000D01*
X154090440Y-103700284D01*
X154316691Y-103794000D01*
X154557250Y-103794000D01*
X154716000Y-103635250D01*
X154716000Y-102436000D01*
X153966750Y-102436000D01*
X153808000Y-102594750D01*
X153808000Y-103139854D01*
X153694890Y-103062569D01*
X153443000Y-103011560D01*
X151243000Y-103011560D01*
X151007683Y-103055838D01*
X150791559Y-103194910D01*
X150646569Y-103407110D01*
X150595560Y-103659000D01*
X133298000Y-103659000D01*
X133298000Y-98647250D01*
X137238000Y-98647250D01*
X137238000Y-99087810D01*
X137334673Y-99321199D01*
X137513302Y-99499827D01*
X137746691Y-99596500D01*
X138187250Y-99596500D01*
X138346000Y-99437750D01*
X138346000Y-98488500D01*
X137396750Y-98488500D01*
X137238000Y-98647250D01*
X133298000Y-98647250D01*
X133298000Y-97635190D01*
X137238000Y-97635190D01*
X137238000Y-98075750D01*
X137396750Y-98234500D01*
X138346000Y-98234500D01*
X138346000Y-97285250D01*
X138187250Y-97126500D01*
X137746691Y-97126500D01*
X137513302Y-97223173D01*
X137334673Y-97401801D01*
X137238000Y-97635190D01*
X133298000Y-97635190D01*
X133298000Y-84836000D01*
X135320500Y-84836000D01*
X135320500Y-93726000D01*
X135378352Y-94016839D01*
X135543099Y-94263401D01*
X137225560Y-95945862D01*
X137225560Y-96294500D01*
X137269838Y-96529817D01*
X137408910Y-96745941D01*
X137621110Y-96890931D01*
X137873000Y-96941940D01*
X138620500Y-96941940D01*
X138620500Y-97264750D01*
X138600000Y-97285250D01*
X138600000Y-98234500D01*
X138620000Y-98234500D01*
X138620000Y-98488500D01*
X138600000Y-98488500D01*
X138600000Y-99437750D01*
X138758750Y-99596500D01*
X139199309Y-99596500D01*
X139432698Y-99499827D01*
X139573936Y-99358590D01*
X139608910Y-99412941D01*
X139821110Y-99557931D01*
X140073000Y-99608940D01*
X141273000Y-99608940D01*
X141508317Y-99564662D01*
X141724441Y-99425590D01*
X141869431Y-99213390D01*
X141888039Y-99121500D01*
X142281758Y-99121500D01*
X142305338Y-99246817D01*
X142444410Y-99462941D01*
X142656610Y-99607931D01*
X142908500Y-99658940D01*
X143608500Y-99658940D01*
X143843817Y-99614662D01*
X144059941Y-99475590D01*
X144204931Y-99263390D01*
X144207581Y-99250303D01*
X144344410Y-99462941D01*
X144462000Y-99543287D01*
X144462000Y-100332243D01*
X144420559Y-100358910D01*
X144275569Y-100571110D01*
X144272919Y-100584197D01*
X144136090Y-100371559D01*
X143923890Y-100226569D01*
X143672000Y-100175560D01*
X142972000Y-100175560D01*
X142736683Y-100219838D01*
X142520559Y-100358910D01*
X142375569Y-100571110D01*
X142346836Y-100713000D01*
X141890334Y-100713000D01*
X141876162Y-100637683D01*
X141737090Y-100421559D01*
X141524890Y-100276569D01*
X141273000Y-100225560D01*
X140073000Y-100225560D01*
X139837683Y-100269838D01*
X139621559Y-100408910D01*
X139573866Y-100478711D01*
X139537090Y-100421559D01*
X139324890Y-100276569D01*
X139073000Y-100225560D01*
X137873000Y-100225560D01*
X137637683Y-100269838D01*
X137421559Y-100408910D01*
X137276569Y-100621110D01*
X137257961Y-100713000D01*
X136960463Y-100713000D01*
X136928327Y-100680808D01*
X136584799Y-100538162D01*
X136212833Y-100537838D01*
X135869057Y-100679883D01*
X135605808Y-100942673D01*
X135463162Y-101286201D01*
X135462838Y-101658167D01*
X135604883Y-102001943D01*
X135867673Y-102265192D01*
X136211201Y-102407838D01*
X136583167Y-102408162D01*
X136926943Y-102266117D01*
X136960118Y-102233000D01*
X137255666Y-102233000D01*
X137269838Y-102308317D01*
X137408910Y-102524441D01*
X137621110Y-102669431D01*
X137873000Y-102720440D01*
X139073000Y-102720440D01*
X139290577Y-102679500D01*
X139870832Y-102679500D01*
X140073000Y-102720440D01*
X141273000Y-102720440D01*
X141508317Y-102676162D01*
X141724441Y-102537090D01*
X141869431Y-102324890D01*
X141888039Y-102233000D01*
X142345258Y-102233000D01*
X142368838Y-102358317D01*
X142507910Y-102574441D01*
X142720110Y-102719431D01*
X142972000Y-102770440D01*
X143672000Y-102770440D01*
X143907317Y-102726162D01*
X144123441Y-102587090D01*
X144268431Y-102374890D01*
X144271081Y-102361803D01*
X144407910Y-102574441D01*
X144620110Y-102719431D01*
X144872000Y-102770440D01*
X145572000Y-102770440D01*
X145807317Y-102726162D01*
X146023441Y-102587090D01*
X146168431Y-102374890D01*
X146219440Y-102123000D01*
X146219440Y-101332690D01*
X153808000Y-101332690D01*
X153808000Y-102023250D01*
X153966750Y-102182000D01*
X154716000Y-102182000D01*
X154716000Y-100982750D01*
X154557250Y-100824000D01*
X154316691Y-100824000D01*
X154083302Y-100920673D01*
X153904673Y-101099301D01*
X153808000Y-101332690D01*
X146219440Y-101332690D01*
X146219440Y-100823000D01*
X146175162Y-100587683D01*
X146036090Y-100371559D01*
X145982000Y-100334601D01*
X145982000Y-99443306D01*
X146104931Y-99263390D01*
X146155940Y-99011500D01*
X146155940Y-98647250D01*
X151472900Y-98647250D01*
X151472900Y-99503810D01*
X151569573Y-99737199D01*
X151748202Y-99915827D01*
X151981591Y-100012500D01*
X152685750Y-100012500D01*
X152844500Y-99853750D01*
X152844500Y-98488500D01*
X151631650Y-98488500D01*
X151472900Y-98647250D01*
X146155940Y-98647250D01*
X146155940Y-97711500D01*
X146111662Y-97476183D01*
X145972590Y-97260059D01*
X145918500Y-97223101D01*
X145918500Y-97219190D01*
X151472900Y-97219190D01*
X151472900Y-98075750D01*
X151631650Y-98234500D01*
X152844500Y-98234500D01*
X152844500Y-96869250D01*
X152685750Y-96710500D01*
X151981591Y-96710500D01*
X151748202Y-96807173D01*
X151569573Y-96985801D01*
X151472900Y-97219190D01*
X145918500Y-97219190D01*
X145918500Y-96776306D01*
X146041431Y-96596390D01*
X146092440Y-96344500D01*
X146092440Y-95044500D01*
X146048162Y-94809183D01*
X145909090Y-94593059D01*
X145855000Y-94556101D01*
X145855000Y-94295000D01*
X145836241Y-94200692D01*
X145797148Y-94004160D01*
X145632401Y-93757599D01*
X144745901Y-92871099D01*
X144499339Y-92706352D01*
X144208500Y-92648500D01*
X143818790Y-92648500D01*
X143828431Y-92634390D01*
X143852102Y-92517500D01*
X144399000Y-92517500D01*
X144689839Y-92459648D01*
X144936401Y-92294901D01*
X147131060Y-90100242D01*
X147131060Y-90105000D01*
X147175338Y-90340317D01*
X147314410Y-90556441D01*
X147526610Y-90701431D01*
X147778500Y-90752440D01*
X148978500Y-90752440D01*
X149213817Y-90708162D01*
X149280893Y-90665000D01*
X149617000Y-90665000D01*
X149907839Y-90607148D01*
X150154401Y-90442401D01*
X150714901Y-89881901D01*
X150879648Y-89635339D01*
X150937500Y-89344500D01*
X150937500Y-84892802D01*
X153887099Y-87842401D01*
X154133661Y-88007148D01*
X154176041Y-88015578D01*
X154082069Y-88153110D01*
X154076465Y-88180785D01*
X154043500Y-88213750D01*
X154043500Y-88281310D01*
X154051968Y-88301753D01*
X154031060Y-88405000D01*
X154031060Y-88805000D01*
X154055444Y-88934589D01*
X154031060Y-89055000D01*
X154031060Y-89455000D01*
X154055444Y-89584589D01*
X154031060Y-89705000D01*
X154031060Y-90105000D01*
X154075338Y-90340317D01*
X154214410Y-90556441D01*
X154426610Y-90701431D01*
X154518500Y-90720039D01*
X154518500Y-97072537D01*
X154451830Y-97117085D01*
X154437000Y-97139280D01*
X154373427Y-96985801D01*
X154194798Y-96807173D01*
X153961409Y-96710500D01*
X153257250Y-96710500D01*
X153098500Y-96869250D01*
X153098500Y-98234500D01*
X153118500Y-98234500D01*
X153118500Y-98488500D01*
X153098500Y-98488500D01*
X153098500Y-99853750D01*
X153257250Y-100012500D01*
X153961409Y-100012500D01*
X154194798Y-99915827D01*
X154373427Y-99737199D01*
X154437000Y-99583720D01*
X154451830Y-99605915D01*
X154751500Y-99806148D01*
X154751500Y-100203000D01*
X154809352Y-100493839D01*
X154974099Y-100740401D01*
X155093224Y-100859526D01*
X154970000Y-100982750D01*
X154970000Y-102182000D01*
X154990000Y-102182000D01*
X154990000Y-102436000D01*
X154970000Y-102436000D01*
X154970000Y-103635250D01*
X155128750Y-103794000D01*
X155369309Y-103794000D01*
X155455424Y-103758330D01*
X155693000Y-103806440D01*
X156493000Y-103806440D01*
X156726260Y-103762549D01*
X156943000Y-103806440D01*
X157743000Y-103806440D01*
X157976260Y-103762549D01*
X158193000Y-103806440D01*
X158993000Y-103806440D01*
X159228317Y-103762162D01*
X159345560Y-103686718D01*
X159345560Y-106759000D01*
X159389838Y-106994317D01*
X159528910Y-107210441D01*
X159741110Y-107355431D01*
X159993000Y-107406440D01*
X162193000Y-107406440D01*
X162428317Y-107362162D01*
X162644441Y-107223090D01*
X162789431Y-107010890D01*
X162840440Y-106759000D01*
X162840440Y-103659000D01*
X162796162Y-103423683D01*
X162657090Y-103207559D01*
X162444890Y-103062569D01*
X162193000Y-103011560D01*
X159993000Y-103011560D01*
X159757683Y-103055838D01*
X159640440Y-103131282D01*
X159640440Y-101459000D01*
X159596162Y-101223683D01*
X159534674Y-101128128D01*
X160624526Y-100038276D01*
X161164989Y-99930771D01*
X161651170Y-99605915D01*
X161976026Y-99119734D01*
X162090100Y-98546245D01*
X162090100Y-98176755D01*
X161976026Y-97603266D01*
X161651170Y-97117085D01*
X161164989Y-96792229D01*
X160591500Y-96678155D01*
X160462500Y-96703815D01*
X160462500Y-93018463D01*
X160494692Y-92986327D01*
X160637338Y-92642799D01*
X160637662Y-92270833D01*
X160495617Y-91927057D01*
X160462500Y-91893882D01*
X160462500Y-89408937D01*
X160478500Y-89328500D01*
X160478500Y-87826279D01*
X160669941Y-87703090D01*
X160716469Y-87634994D01*
X160858802Y-87777327D01*
X161092191Y-87874000D01*
X161432750Y-87874000D01*
X161591500Y-87715250D01*
X161591500Y-86741000D01*
X161845500Y-86741000D01*
X161845500Y-87715250D01*
X162004250Y-87874000D01*
X162344809Y-87874000D01*
X162578198Y-87777327D01*
X162756827Y-87598699D01*
X162853500Y-87365310D01*
X162853500Y-86899750D01*
X162694750Y-86741000D01*
X161845500Y-86741000D01*
X161591500Y-86741000D01*
X161571500Y-86741000D01*
X161571500Y-86487000D01*
X161591500Y-86487000D01*
X161591500Y-85512750D01*
X161845500Y-85512750D01*
X161845500Y-86487000D01*
X162694750Y-86487000D01*
X162853500Y-86328250D01*
X162853500Y-85862690D01*
X162756827Y-85629301D01*
X162578198Y-85450673D01*
X162344809Y-85354000D01*
X162004250Y-85354000D01*
X161845500Y-85512750D01*
X161591500Y-85512750D01*
X161432750Y-85354000D01*
X161092191Y-85354000D01*
X160858802Y-85450673D01*
X160717564Y-85591910D01*
X160682590Y-85537559D01*
X160470390Y-85392569D01*
X160218500Y-85341560D01*
X159218500Y-85341560D01*
X158983183Y-85385838D01*
X158767059Y-85524910D01*
X158622069Y-85737110D01*
X158590095Y-85895000D01*
X156513500Y-85895000D01*
X156513500Y-85877998D01*
X156432029Y-85877998D01*
X156467580Y-85792170D01*
X156513500Y-85746250D01*
X156513500Y-85613750D01*
X156467580Y-85567830D01*
X156416827Y-85445301D01*
X156238198Y-85266673D01*
X156210017Y-85255000D01*
X156354750Y-85255000D01*
X156513500Y-85096250D01*
X156513500Y-85028690D01*
X156416827Y-84795301D01*
X156238198Y-84616673D01*
X156004809Y-84520000D01*
X155564250Y-84520000D01*
X155405500Y-84678750D01*
X155405500Y-85255000D01*
X155479250Y-85255000D01*
X155405500Y-85328750D01*
X155405500Y-85502000D01*
X155151500Y-85502000D01*
X155151500Y-85328750D01*
X155077750Y-85255000D01*
X155151500Y-85255000D01*
X155151500Y-84678750D01*
X154992750Y-84520000D01*
X154552191Y-84520000D01*
X154318802Y-84616673D01*
X154140173Y-84795301D01*
X154043500Y-85028690D01*
X154043500Y-85096250D01*
X154202250Y-85255000D01*
X154346983Y-85255000D01*
X154318802Y-85266673D01*
X154140173Y-85445301D01*
X154089420Y-85567830D01*
X154043500Y-85613750D01*
X154043500Y-85746250D01*
X154089420Y-85792170D01*
X154124971Y-85877998D01*
X154072300Y-85877998D01*
X151684122Y-83489820D01*
X151684162Y-83444333D01*
X151542117Y-83100557D01*
X151279327Y-82837308D01*
X150935799Y-82694662D01*
X150563833Y-82694338D01*
X150220057Y-82836383D01*
X149956808Y-83099173D01*
X149858000Y-83337128D01*
X149858000Y-81652031D01*
X149888303Y-81639510D01*
X150281629Y-81246870D01*
X150494757Y-80733600D01*
X150494759Y-80731164D01*
X150706990Y-81244803D01*
X151099630Y-81638129D01*
X151612900Y-81851257D01*
X152168661Y-81851742D01*
X152682303Y-81639510D01*
X153075629Y-81246870D01*
X153288757Y-80733600D01*
X153288759Y-80731164D01*
X153500990Y-81244803D01*
X153893630Y-81638129D01*
X154406900Y-81851257D01*
X154962661Y-81851742D01*
X155476303Y-81639510D01*
X155869629Y-81246870D01*
X156082757Y-80733600D01*
X156083242Y-80177839D01*
X155871010Y-79664197D01*
X155478370Y-79270871D01*
X154965100Y-79057743D01*
X154409339Y-79057258D01*
X153895697Y-79269490D01*
X153502371Y-79662130D01*
X153289243Y-80175400D01*
X153289241Y-80177836D01*
X153077010Y-79664197D01*
X152684370Y-79270871D01*
X152171100Y-79057743D01*
X151615339Y-79057258D01*
X151101697Y-79269490D01*
X150708371Y-79662130D01*
X150495243Y-80175400D01*
X150495241Y-80177836D01*
X150283010Y-79664197D01*
X149890370Y-79270871D01*
X149377100Y-79057743D01*
X148821339Y-79057258D01*
X148307697Y-79269490D01*
X147914371Y-79662130D01*
X147764394Y-80023315D01*
X147616010Y-79664197D01*
X147223370Y-79270871D01*
X146710100Y-79057743D01*
X146154339Y-79057258D01*
X145640697Y-79269490D01*
X145247371Y-79662130D01*
X145046440Y-80146026D01*
X145046440Y-79692500D01*
X145002162Y-79457183D01*
X144908347Y-79311391D01*
X145310661Y-79311742D01*
X145824303Y-79099510D01*
X146217629Y-78706870D01*
X146430757Y-78193600D01*
X146430759Y-78191164D01*
X146642990Y-78704803D01*
X147035630Y-79098129D01*
X147548900Y-79311257D01*
X148104661Y-79311742D01*
X148618303Y-79099510D01*
X149011629Y-78706870D01*
X149161606Y-78345685D01*
X149309990Y-78704803D01*
X149702630Y-79098129D01*
X150215900Y-79311257D01*
X150771661Y-79311742D01*
X151285303Y-79099510D01*
X151678629Y-78706870D01*
X151891757Y-78193600D01*
X151891759Y-78191164D01*
X152103990Y-78704803D01*
X152496630Y-79098129D01*
X153009900Y-79311257D01*
X153565661Y-79311742D01*
X154079303Y-79099510D01*
X154472629Y-78706870D01*
X154592777Y-78417521D01*
X159384560Y-78417521D01*
X159770437Y-79351415D01*
X160484327Y-80066552D01*
X161417546Y-80454059D01*
X162428021Y-80454940D01*
X163361915Y-80069063D01*
X164077052Y-79355173D01*
X164464559Y-78421954D01*
X164465440Y-77411479D01*
X164079563Y-76477585D01*
X163365673Y-75762448D01*
X162432454Y-75374941D01*
X161421979Y-75374060D01*
X160488085Y-75759937D01*
X159772948Y-76473827D01*
X159385441Y-77407046D01*
X159384560Y-78417521D01*
X154592777Y-78417521D01*
X154685757Y-78193600D01*
X154686242Y-77637839D01*
X154474010Y-77124197D01*
X154081370Y-76730871D01*
X153568100Y-76517743D01*
X153012339Y-76517258D01*
X152498697Y-76729490D01*
X152105371Y-77122130D01*
X151892243Y-77635400D01*
X151892241Y-77637836D01*
X151680010Y-77124197D01*
X151287370Y-76730871D01*
X150774100Y-76517743D01*
X150218339Y-76517258D01*
X149704697Y-76729490D01*
X149311371Y-77122130D01*
X149161394Y-77483315D01*
X149013010Y-77124197D01*
X148620370Y-76730871D01*
X148107100Y-76517743D01*
X147551339Y-76517258D01*
X147037697Y-76729490D01*
X146644371Y-77122130D01*
X146431243Y-77635400D01*
X146431241Y-77637836D01*
X146219010Y-77124197D01*
X145826370Y-76730871D01*
X145313100Y-76517743D01*
X144757339Y-76517258D01*
X144243697Y-76729490D01*
X143850371Y-77122130D01*
X143637243Y-77635400D01*
X143636758Y-78191161D01*
X143848990Y-78704803D01*
X144188654Y-79045060D01*
X142875000Y-79045060D01*
X142639683Y-79089338D01*
X142423559Y-79228410D01*
X142278569Y-79440610D01*
X142227560Y-79692500D01*
X142227560Y-81216500D01*
X142271838Y-81451817D01*
X142410910Y-81667941D01*
X142623110Y-81812931D01*
X142875000Y-81863940D01*
X144399000Y-81863940D01*
X144634317Y-81819662D01*
X144850441Y-81680590D01*
X144995431Y-81468390D01*
X145046440Y-81216500D01*
X145046440Y-80761854D01*
X145245990Y-81244803D01*
X145638630Y-81638129D01*
X145671000Y-81651570D01*
X145671000Y-83067037D01*
X145638808Y-83099173D01*
X145540126Y-83336824D01*
X145295401Y-83092099D01*
X145048839Y-82927352D01*
X144758000Y-82869500D01*
X137287000Y-82869500D01*
X136996161Y-82927352D01*
X136749599Y-83092099D01*
X135543099Y-84298599D01*
X135378352Y-84545161D01*
X135320500Y-84836000D01*
X133298000Y-84836000D01*
X133298000Y-78417521D01*
X133984560Y-78417521D01*
X134370437Y-79351415D01*
X135084327Y-80066552D01*
X136017546Y-80454059D01*
X137028021Y-80454940D01*
X137961915Y-80069063D01*
X138677052Y-79355173D01*
X139064559Y-78421954D01*
X139065440Y-77411479D01*
X138679563Y-76477585D01*
X137965673Y-75762448D01*
X137032454Y-75374941D01*
X136021979Y-75374060D01*
X135088085Y-75759937D01*
X134372948Y-76473827D01*
X133985441Y-77407046D01*
X133984560Y-78417521D01*
X133298000Y-78417521D01*
X133298000Y-75005000D01*
X165215500Y-75005000D01*
X165215500Y-107494000D01*
X165215500Y-107494000D01*
G37*
X165215500Y-107494000D02*
X133298000Y-107494000D01*
X133298000Y-103659000D01*
X150595560Y-103659000D01*
X150595560Y-106759000D01*
X150639838Y-106994317D01*
X150778910Y-107210441D01*
X150991110Y-107355431D01*
X151243000Y-107406440D01*
X153443000Y-107406440D01*
X153678317Y-107362162D01*
X153894441Y-107223090D01*
X154039431Y-107010890D01*
X154090440Y-106759000D01*
X154090440Y-103700284D01*
X154316691Y-103794000D01*
X154557250Y-103794000D01*
X154716000Y-103635250D01*
X154716000Y-102436000D01*
X153966750Y-102436000D01*
X153808000Y-102594750D01*
X153808000Y-103139854D01*
X153694890Y-103062569D01*
X153443000Y-103011560D01*
X151243000Y-103011560D01*
X151007683Y-103055838D01*
X150791559Y-103194910D01*
X150646569Y-103407110D01*
X150595560Y-103659000D01*
X133298000Y-103659000D01*
X133298000Y-98647250D01*
X137238000Y-98647250D01*
X137238000Y-99087810D01*
X137334673Y-99321199D01*
X137513302Y-99499827D01*
X137746691Y-99596500D01*
X138187250Y-99596500D01*
X138346000Y-99437750D01*
X138346000Y-98488500D01*
X137396750Y-98488500D01*
X137238000Y-98647250D01*
X133298000Y-98647250D01*
X133298000Y-97635190D01*
X137238000Y-97635190D01*
X137238000Y-98075750D01*
X137396750Y-98234500D01*
X138346000Y-98234500D01*
X138346000Y-97285250D01*
X138187250Y-97126500D01*
X137746691Y-97126500D01*
X137513302Y-97223173D01*
X137334673Y-97401801D01*
X137238000Y-97635190D01*
X133298000Y-97635190D01*
X133298000Y-84836000D01*
X135320500Y-84836000D01*
X135320500Y-93726000D01*
X135378352Y-94016839D01*
X135543099Y-94263401D01*
X137225560Y-95945862D01*
X137225560Y-96294500D01*
X137269838Y-96529817D01*
X137408910Y-96745941D01*
X137621110Y-96890931D01*
X137873000Y-96941940D01*
X138620500Y-96941940D01*
X138620500Y-97264750D01*
X138600000Y-97285250D01*
X138600000Y-98234500D01*
X138620000Y-98234500D01*
X138620000Y-98488500D01*
X138600000Y-98488500D01*
X138600000Y-99437750D01*
X138758750Y-99596500D01*
X139199309Y-99596500D01*
X139432698Y-99499827D01*
X139573936Y-99358590D01*
X139608910Y-99412941D01*
X139821110Y-99557931D01*
X140073000Y-99608940D01*
X141273000Y-99608940D01*
X141508317Y-99564662D01*
X141724441Y-99425590D01*
X141869431Y-99213390D01*
X141888039Y-99121500D01*
X142281758Y-99121500D01*
X142305338Y-99246817D01*
X142444410Y-99462941D01*
X142656610Y-99607931D01*
X142908500Y-99658940D01*
X143608500Y-99658940D01*
X143843817Y-99614662D01*
X144059941Y-99475590D01*
X144204931Y-99263390D01*
X144207581Y-99250303D01*
X144344410Y-99462941D01*
X144462000Y-99543287D01*
X144462000Y-100332243D01*
X144420559Y-100358910D01*
X144275569Y-100571110D01*
X144272919Y-100584197D01*
X144136090Y-100371559D01*
X143923890Y-100226569D01*
X143672000Y-100175560D01*
X142972000Y-100175560D01*
X142736683Y-100219838D01*
X142520559Y-100358910D01*
X142375569Y-100571110D01*
X142346836Y-100713000D01*
X141890334Y-100713000D01*
X141876162Y-100637683D01*
X141737090Y-100421559D01*
X141524890Y-100276569D01*
X141273000Y-100225560D01*
X140073000Y-100225560D01*
X139837683Y-100269838D01*
X139621559Y-100408910D01*
X139573866Y-100478711D01*
X139537090Y-100421559D01*
X139324890Y-100276569D01*
X139073000Y-100225560D01*
X137873000Y-100225560D01*
X137637683Y-100269838D01*
X137421559Y-100408910D01*
X137276569Y-100621110D01*
X137257961Y-100713000D01*
X136960463Y-100713000D01*
X136928327Y-100680808D01*
X136584799Y-100538162D01*
X136212833Y-100537838D01*
X135869057Y-100679883D01*
X135605808Y-100942673D01*
X135463162Y-101286201D01*
X135462838Y-101658167D01*
X135604883Y-102001943D01*
X135867673Y-102265192D01*
X136211201Y-102407838D01*
X136583167Y-102408162D01*
X136926943Y-102266117D01*
X136960118Y-102233000D01*
X137255666Y-102233000D01*
X137269838Y-102308317D01*
X137408910Y-102524441D01*
X137621110Y-102669431D01*
X137873000Y-102720440D01*
X139073000Y-102720440D01*
X139290577Y-102679500D01*
X139870832Y-102679500D01*
X140073000Y-102720440D01*
X141273000Y-102720440D01*
X141508317Y-102676162D01*
X141724441Y-102537090D01*
X141869431Y-102324890D01*
X141888039Y-102233000D01*
X142345258Y-102233000D01*
X142368838Y-102358317D01*
X142507910Y-102574441D01*
X142720110Y-102719431D01*
X142972000Y-102770440D01*
X143672000Y-102770440D01*
X143907317Y-102726162D01*
X144123441Y-102587090D01*
X144268431Y-102374890D01*
X144271081Y-102361803D01*
X144407910Y-102574441D01*
X144620110Y-102719431D01*
X144872000Y-102770440D01*
X145572000Y-102770440D01*
X145807317Y-102726162D01*
X146023441Y-102587090D01*
X146168431Y-102374890D01*
X146219440Y-102123000D01*
X146219440Y-101332690D01*
X153808000Y-101332690D01*
X153808000Y-102023250D01*
X153966750Y-102182000D01*
X154716000Y-102182000D01*
X154716000Y-100982750D01*
X154557250Y-100824000D01*
X154316691Y-100824000D01*
X154083302Y-100920673D01*
X153904673Y-101099301D01*
X153808000Y-101332690D01*
X146219440Y-101332690D01*
X146219440Y-100823000D01*
X146175162Y-100587683D01*
X146036090Y-100371559D01*
X145982000Y-100334601D01*
X145982000Y-99443306D01*
X146104931Y-99263390D01*
X146155940Y-99011500D01*
X146155940Y-98647250D01*
X151472900Y-98647250D01*
X151472900Y-99503810D01*
X151569573Y-99737199D01*
X151748202Y-99915827D01*
X151981591Y-100012500D01*
X152685750Y-100012500D01*
X152844500Y-99853750D01*
X152844500Y-98488500D01*
X151631650Y-98488500D01*
X151472900Y-98647250D01*
X146155940Y-98647250D01*
X146155940Y-97711500D01*
X146111662Y-97476183D01*
X145972590Y-97260059D01*
X145918500Y-97223101D01*
X145918500Y-97219190D01*
X151472900Y-97219190D01*
X151472900Y-98075750D01*
X151631650Y-98234500D01*
X152844500Y-98234500D01*
X152844500Y-96869250D01*
X152685750Y-96710500D01*
X151981591Y-96710500D01*
X151748202Y-96807173D01*
X151569573Y-96985801D01*
X151472900Y-97219190D01*
X145918500Y-97219190D01*
X145918500Y-96776306D01*
X146041431Y-96596390D01*
X146092440Y-96344500D01*
X146092440Y-95044500D01*
X146048162Y-94809183D01*
X145909090Y-94593059D01*
X145855000Y-94556101D01*
X145855000Y-94295000D01*
X145836241Y-94200692D01*
X145797148Y-94004160D01*
X145632401Y-93757599D01*
X144745901Y-92871099D01*
X144499339Y-92706352D01*
X144208500Y-92648500D01*
X143818790Y-92648500D01*
X143828431Y-92634390D01*
X143852102Y-92517500D01*
X144399000Y-92517500D01*
X144689839Y-92459648D01*
X144936401Y-92294901D01*
X147131060Y-90100242D01*
X147131060Y-90105000D01*
X147175338Y-90340317D01*
X147314410Y-90556441D01*
X147526610Y-90701431D01*
X147778500Y-90752440D01*
X148978500Y-90752440D01*
X149213817Y-90708162D01*
X149280893Y-90665000D01*
X149617000Y-90665000D01*
X149907839Y-90607148D01*
X150154401Y-90442401D01*
X150714901Y-89881901D01*
X150879648Y-89635339D01*
X150937500Y-89344500D01*
X150937500Y-84892802D01*
X153887099Y-87842401D01*
X154133661Y-88007148D01*
X154176041Y-88015578D01*
X154082069Y-88153110D01*
X154076465Y-88180785D01*
X154043500Y-88213750D01*
X154043500Y-88281310D01*
X154051968Y-88301753D01*
X154031060Y-88405000D01*
X154031060Y-88805000D01*
X154055444Y-88934589D01*
X154031060Y-89055000D01*
X154031060Y-89455000D01*
X154055444Y-89584589D01*
X154031060Y-89705000D01*
X154031060Y-90105000D01*
X154075338Y-90340317D01*
X154214410Y-90556441D01*
X154426610Y-90701431D01*
X154518500Y-90720039D01*
X154518500Y-97072537D01*
X154451830Y-97117085D01*
X154437000Y-97139280D01*
X154373427Y-96985801D01*
X154194798Y-96807173D01*
X153961409Y-96710500D01*
X153257250Y-96710500D01*
X153098500Y-96869250D01*
X153098500Y-98234500D01*
X153118500Y-98234500D01*
X153118500Y-98488500D01*
X153098500Y-98488500D01*
X153098500Y-99853750D01*
X153257250Y-100012500D01*
X153961409Y-100012500D01*
X154194798Y-99915827D01*
X154373427Y-99737199D01*
X154437000Y-99583720D01*
X154451830Y-99605915D01*
X154751500Y-99806148D01*
X154751500Y-100203000D01*
X154809352Y-100493839D01*
X154974099Y-100740401D01*
X155093224Y-100859526D01*
X154970000Y-100982750D01*
X154970000Y-102182000D01*
X154990000Y-102182000D01*
X154990000Y-102436000D01*
X154970000Y-102436000D01*
X154970000Y-103635250D01*
X155128750Y-103794000D01*
X155369309Y-103794000D01*
X155455424Y-103758330D01*
X155693000Y-103806440D01*
X156493000Y-103806440D01*
X156726260Y-103762549D01*
X156943000Y-103806440D01*
X157743000Y-103806440D01*
X157976260Y-103762549D01*
X158193000Y-103806440D01*
X158993000Y-103806440D01*
X159228317Y-103762162D01*
X159345560Y-103686718D01*
X159345560Y-106759000D01*
X159389838Y-106994317D01*
X159528910Y-107210441D01*
X159741110Y-107355431D01*
X159993000Y-107406440D01*
X162193000Y-107406440D01*
X162428317Y-107362162D01*
X162644441Y-107223090D01*
X162789431Y-107010890D01*
X162840440Y-106759000D01*
X162840440Y-103659000D01*
X162796162Y-103423683D01*
X162657090Y-103207559D01*
X162444890Y-103062569D01*
X162193000Y-103011560D01*
X159993000Y-103011560D01*
X159757683Y-103055838D01*
X159640440Y-103131282D01*
X159640440Y-101459000D01*
X159596162Y-101223683D01*
X159534674Y-101128128D01*
X160624526Y-100038276D01*
X161164989Y-99930771D01*
X161651170Y-99605915D01*
X161976026Y-99119734D01*
X162090100Y-98546245D01*
X162090100Y-98176755D01*
X161976026Y-97603266D01*
X161651170Y-97117085D01*
X161164989Y-96792229D01*
X160591500Y-96678155D01*
X160462500Y-96703815D01*
X160462500Y-93018463D01*
X160494692Y-92986327D01*
X160637338Y-92642799D01*
X160637662Y-92270833D01*
X160495617Y-91927057D01*
X160462500Y-91893882D01*
X160462500Y-89408937D01*
X160478500Y-89328500D01*
X160478500Y-87826279D01*
X160669941Y-87703090D01*
X160716469Y-87634994D01*
X160858802Y-87777327D01*
X161092191Y-87874000D01*
X161432750Y-87874000D01*
X161591500Y-87715250D01*
X161591500Y-86741000D01*
X161845500Y-86741000D01*
X161845500Y-87715250D01*
X162004250Y-87874000D01*
X162344809Y-87874000D01*
X162578198Y-87777327D01*
X162756827Y-87598699D01*
X162853500Y-87365310D01*
X162853500Y-86899750D01*
X162694750Y-86741000D01*
X161845500Y-86741000D01*
X161591500Y-86741000D01*
X161571500Y-86741000D01*
X161571500Y-86487000D01*
X161591500Y-86487000D01*
X161591500Y-85512750D01*
X161845500Y-85512750D01*
X161845500Y-86487000D01*
X162694750Y-86487000D01*
X162853500Y-86328250D01*
X162853500Y-85862690D01*
X162756827Y-85629301D01*
X162578198Y-85450673D01*
X162344809Y-85354000D01*
X162004250Y-85354000D01*
X161845500Y-85512750D01*
X161591500Y-85512750D01*
X161432750Y-85354000D01*
X161092191Y-85354000D01*
X160858802Y-85450673D01*
X160717564Y-85591910D01*
X160682590Y-85537559D01*
X160470390Y-85392569D01*
X160218500Y-85341560D01*
X159218500Y-85341560D01*
X158983183Y-85385838D01*
X158767059Y-85524910D01*
X158622069Y-85737110D01*
X158590095Y-85895000D01*
X156513500Y-85895000D01*
X156513500Y-85877998D01*
X156432029Y-85877998D01*
X156467580Y-85792170D01*
X156513500Y-85746250D01*
X156513500Y-85613750D01*
X156467580Y-85567830D01*
X156416827Y-85445301D01*
X156238198Y-85266673D01*
X156210017Y-85255000D01*
X156354750Y-85255000D01*
X156513500Y-85096250D01*
X156513500Y-85028690D01*
X156416827Y-84795301D01*
X156238198Y-84616673D01*
X156004809Y-84520000D01*
X155564250Y-84520000D01*
X155405500Y-84678750D01*
X155405500Y-85255000D01*
X155479250Y-85255000D01*
X155405500Y-85328750D01*
X155405500Y-85502000D01*
X155151500Y-85502000D01*
X155151500Y-85328750D01*
X155077750Y-85255000D01*
X155151500Y-85255000D01*
X155151500Y-84678750D01*
X154992750Y-84520000D01*
X154552191Y-84520000D01*
X154318802Y-84616673D01*
X154140173Y-84795301D01*
X154043500Y-85028690D01*
X154043500Y-85096250D01*
X154202250Y-85255000D01*
X154346983Y-85255000D01*
X154318802Y-85266673D01*
X154140173Y-85445301D01*
X154089420Y-85567830D01*
X154043500Y-85613750D01*
X154043500Y-85746250D01*
X154089420Y-85792170D01*
X154124971Y-85877998D01*
X154072300Y-85877998D01*
X151684122Y-83489820D01*
X151684162Y-83444333D01*
X151542117Y-83100557D01*
X151279327Y-82837308D01*
X150935799Y-82694662D01*
X150563833Y-82694338D01*
X150220057Y-82836383D01*
X149956808Y-83099173D01*
X149858000Y-83337128D01*
X149858000Y-81652031D01*
X149888303Y-81639510D01*
X150281629Y-81246870D01*
X150494757Y-80733600D01*
X150494759Y-80731164D01*
X150706990Y-81244803D01*
X151099630Y-81638129D01*
X151612900Y-81851257D01*
X152168661Y-81851742D01*
X152682303Y-81639510D01*
X153075629Y-81246870D01*
X153288757Y-80733600D01*
X153288759Y-80731164D01*
X153500990Y-81244803D01*
X153893630Y-81638129D01*
X154406900Y-81851257D01*
X154962661Y-81851742D01*
X155476303Y-81639510D01*
X155869629Y-81246870D01*
X156082757Y-80733600D01*
X156083242Y-80177839D01*
X155871010Y-79664197D01*
X155478370Y-79270871D01*
X154965100Y-79057743D01*
X154409339Y-79057258D01*
X153895697Y-79269490D01*
X153502371Y-79662130D01*
X153289243Y-80175400D01*
X153289241Y-80177836D01*
X153077010Y-79664197D01*
X152684370Y-79270871D01*
X152171100Y-79057743D01*
X151615339Y-79057258D01*
X151101697Y-79269490D01*
X150708371Y-79662130D01*
X150495243Y-80175400D01*
X150495241Y-80177836D01*
X150283010Y-79664197D01*
X149890370Y-79270871D01*
X149377100Y-79057743D01*
X148821339Y-79057258D01*
X148307697Y-79269490D01*
X147914371Y-79662130D01*
X147764394Y-80023315D01*
X147616010Y-79664197D01*
X147223370Y-79270871D01*
X146710100Y-79057743D01*
X146154339Y-79057258D01*
X145640697Y-79269490D01*
X145247371Y-79662130D01*
X145046440Y-80146026D01*
X145046440Y-79692500D01*
X145002162Y-79457183D01*
X144908347Y-79311391D01*
X145310661Y-79311742D01*
X145824303Y-79099510D01*
X146217629Y-78706870D01*
X146430757Y-78193600D01*
X146430759Y-78191164D01*
X146642990Y-78704803D01*
X147035630Y-79098129D01*
X147548900Y-79311257D01*
X148104661Y-79311742D01*
X148618303Y-79099510D01*
X149011629Y-78706870D01*
X149161606Y-78345685D01*
X149309990Y-78704803D01*
X149702630Y-79098129D01*
X150215900Y-79311257D01*
X150771661Y-79311742D01*
X151285303Y-79099510D01*
X151678629Y-78706870D01*
X151891757Y-78193600D01*
X151891759Y-78191164D01*
X152103990Y-78704803D01*
X152496630Y-79098129D01*
X153009900Y-79311257D01*
X153565661Y-79311742D01*
X154079303Y-79099510D01*
X154472629Y-78706870D01*
X154592777Y-78417521D01*
X159384560Y-78417521D01*
X159770437Y-79351415D01*
X160484327Y-80066552D01*
X161417546Y-80454059D01*
X162428021Y-80454940D01*
X163361915Y-80069063D01*
X164077052Y-79355173D01*
X164464559Y-78421954D01*
X164465440Y-77411479D01*
X164079563Y-76477585D01*
X163365673Y-75762448D01*
X162432454Y-75374941D01*
X161421979Y-75374060D01*
X160488085Y-75759937D01*
X159772948Y-76473827D01*
X159385441Y-77407046D01*
X159384560Y-78417521D01*
X154592777Y-78417521D01*
X154685757Y-78193600D01*
X154686242Y-77637839D01*
X154474010Y-77124197D01*
X154081370Y-76730871D01*
X153568100Y-76517743D01*
X153012339Y-76517258D01*
X152498697Y-76729490D01*
X152105371Y-77122130D01*
X151892243Y-77635400D01*
X151892241Y-77637836D01*
X151680010Y-77124197D01*
X151287370Y-76730871D01*
X150774100Y-76517743D01*
X150218339Y-76517258D01*
X149704697Y-76729490D01*
X149311371Y-77122130D01*
X149161394Y-77483315D01*
X149013010Y-77124197D01*
X148620370Y-76730871D01*
X148107100Y-76517743D01*
X147551339Y-76517258D01*
X147037697Y-76729490D01*
X146644371Y-77122130D01*
X146431243Y-77635400D01*
X146431241Y-77637836D01*
X146219010Y-77124197D01*
X145826370Y-76730871D01*
X145313100Y-76517743D01*
X144757339Y-76517258D01*
X144243697Y-76729490D01*
X143850371Y-77122130D01*
X143637243Y-77635400D01*
X143636758Y-78191161D01*
X143848990Y-78704803D01*
X144188654Y-79045060D01*
X142875000Y-79045060D01*
X142639683Y-79089338D01*
X142423559Y-79228410D01*
X142278569Y-79440610D01*
X142227560Y-79692500D01*
X142227560Y-81216500D01*
X142271838Y-81451817D01*
X142410910Y-81667941D01*
X142623110Y-81812931D01*
X142875000Y-81863940D01*
X144399000Y-81863940D01*
X144634317Y-81819662D01*
X144850441Y-81680590D01*
X144995431Y-81468390D01*
X145046440Y-81216500D01*
X145046440Y-80761854D01*
X145245990Y-81244803D01*
X145638630Y-81638129D01*
X145671000Y-81651570D01*
X145671000Y-83067037D01*
X145638808Y-83099173D01*
X145540126Y-83336824D01*
X145295401Y-83092099D01*
X145048839Y-82927352D01*
X144758000Y-82869500D01*
X137287000Y-82869500D01*
X136996161Y-82927352D01*
X136749599Y-83092099D01*
X135543099Y-84298599D01*
X135378352Y-84545161D01*
X135320500Y-84836000D01*
X133298000Y-84836000D01*
X133298000Y-78417521D01*
X133984560Y-78417521D01*
X134370437Y-79351415D01*
X135084327Y-80066552D01*
X136017546Y-80454059D01*
X137028021Y-80454940D01*
X137961915Y-80069063D01*
X138677052Y-79355173D01*
X139064559Y-78421954D01*
X139065440Y-77411479D01*
X138679563Y-76477585D01*
X137965673Y-75762448D01*
X137032454Y-75374941D01*
X136021979Y-75374060D01*
X135088085Y-75759937D01*
X134372948Y-76473827D01*
X133985441Y-77407046D01*
X133984560Y-78417521D01*
X133298000Y-78417521D01*
X133298000Y-75005000D01*
X165215500Y-75005000D01*
X165215500Y-107494000D01*
M02*
